<svg xmlns="http://www.w3.org/2000/svg" width="32" height="32">
	<path fill="#fff" d="M29.694947893627152,13.427695075630691 l-2.0857552351827824,-0.3595038932595123 c-0.2172661703315403,-0.712700700672364 -0.496608389329234,-1.4001730579580949 -0.8380266569930849,-2.0561099860105356 l1.2291057635898541,-1.7470627795242901 c0.5214388087956955,-0.7442361299056528 0.4407399455296953,-1.759676951217606 -0.19864335573169425,-2.4029997075767313 l-1.8498662502513956,-1.8795115823041086 c-0.3476258725304652,-0.3531968074128536 -0.8069886326600066,-0.5487164686592535 -1.2973894171226243,-0.5487164686592535 c-0.38487150173015733,0 -0.7511201888604655,0.11983463108650394 -1.0615004321912376,0.34688972156619585 l-1.7257141529190898,1.248802997638301 c-0.6704213255944672,-0.3595038932595123 -1.3718806755220094,-0.6559369280524422 -2.098170444916014,-0.8766849326854771 l-0.3476258725304652,-2.0939525010904845 c-0.14898251679877042,-0.9019132760721066 -0.9125179153924664,-1.557850204124548 -1.8126206210517037,-1.557850204124548 h-2.613401648845093 c-0.9001027056592356,0 -1.6636381042529338,0.6559369280524422 -1.8126206210517037,1.557850204124548 l-0.3600410822636953,2.1444091878637486 c-0.6952517450609277,0.22074800463303348 -1.3718806755220094,0.5108739535793058 -2.0174715816500126,0.864070760992158 l-1.707091338319242,-1.248802997638301 c-0.3103802433307728,-0.22705509047969152 -0.6828365353276976,-0.34688972156619585 -1.067708037057853,-0.34688972156619585 c-0.4904007844626193,0 -0.9559711494587761,0.19551966124640124 -1.2973894171226243,0.5487164686592535 l-1.8560738551180118,1.8795115823041086 c-0.6331756963947773,0.6433227563591268 -0.7200821645273903,1.6587635776710767 -0.19864335573169425,2.4029997075767313 l1.2415209733230848,1.7722911229109222 c-0.34141826766385047,0.6622440138991018 -0.6145528817949266,1.3497163711848323 -0.8256114472598526,2.0624170718571944 l-2.0609248157163202,0.3531968074128536 c-0.8876874959260059,0.15137006031979416 -1.5332784020540102,0.9271416194587401 -1.5332784020540102,1.8416690672241613 v2.655283141443054 c0,0.9145274477654225 0.6455909061280062,1.6902990069043677 1.5332784020540102,1.8416690672241613 l2.110585654649244,0.36581097910617055 c0.2172661703315403,0.7063936148257057 0.502815994195849,1.3938659721114375 0.8504418667263136,2.0498029001638773 l-1.2228981587232386,1.7281415219843161 c-0.5214388087956955,0.7442361299056528 -0.4407399455296953,1.759676951217606 0.19864335573169425,2.4029997075767313 l1.8498662502513956,1.8795115823041086 c0.3476258725304652,0.3531968074128536 0.8069886326600066,0.5487164686592535 1.2973894171226243,0.5487164686592535 c0.38487150173015733,0 0.7511201888604655,-0.11983463108650394 1.0615004321912376,-0.34688972156619585 l1.7443369675189342,-1.2614171693316174 c0.6269680915281591,0.33427554987288 1.284974207389393,0.605480241279178 1.9616031378504748,0.8199211600655518 l0.3476258725304652,2.1191808444771167 c0.14898251679877042,0.9019132760721066 0.9125179153924664,1.557850204124548 1.8126206210517037,1.557850204124548 h2.619609253711709 c0.9001027056592356,0 1.6636381042529338,-0.6559369280524422 1.8126206210517037,-1.557850204124548 l0.3538334773970805,-2.1191808444771167 c0.7014593499275427,-0.22074800463303348 1.3780882803886247,-0.5045668677326443 2.023679186516628,-0.8514565892988425 l1.7195065480524727,1.248802997638301 c0.3103802433307728,0.22705509047969152 0.6828365353276976,0.34688972156619585 1.067708037057853,0.34688972156619585 l0,0 c0.4904007844626193,0 0.9497635445921601,-0.19551966124640124 1.2973894171226243,-0.5487164686592535 l1.8498662502513956,-1.8795115823041086 c0.6331756963947773,-0.6433227563591268 0.7200821645273903,-1.6587635776710767 0.19864335573169425,-2.4029997075767313 l-1.2291057635898541,-1.7533698653709484 c0.34141826766385047,-0.6622440138991018 0.6269680915281591,-1.3497163711848323 0.8380266569930849,-2.0561099860105356 l2.0857552351827824,-0.3531968074128536 c0.8876874959260059,-0.15137006031979416 1.5332784020540102,-0.9271416194587401 1.5332784020540102,-1.8416690672241613 v-2.655283141443054 C31.22822629568116,14.354836695089427 30.58263538955316,13.579065135950483 29.694947893627152,13.427695075630691 zM29.552172981694994,17.924647284297908 c0,0.08199211600655544 -0.05586844379953896,0.15137006031979416 -0.13656730706553946,0.16398423201311077 l-2.607194043978477,0.44149600926606686 c-0.3290030579306184,0.05676377261992285 -0.5897224623284675,0.30274012063958866 -0.6704213255944672,0.6244014988191516 c-0.23588898493138621,0.9271416194587401 -0.595930067195083,1.816440723837529 -1.0801232467910837,2.6426689697497374 c-0.16760533139861683,0.29012594894627247 -0.15519012166538584,0.6496298422057863 0.03724562919969261,0.9271416194587401 l1.5332784020540102,2.194865874637014 c0.04345323406630811,0.0630708584665812 0.03724562919969261,0.15767714616645265 -0.01862281459984629,0.21444091878637553 l-1.8498662502513956,1.8795115823041086 c-0.04345323406630811,0.044149600926606844 -0.08690646813261615,0.05045668677326483 -0.11794449246569323,0.05045668677326483 c-0.03724562919969261,0 -0.06828365353277004,-0.012614171693316184 -0.09311407299923179,-0.031535429233290634 l-2.1540388887155526,-1.557850204124548 c-0.26692700926446444,-0.19551966124640124 -0.6269680915281591,-0.20813383293971688 -0.9125179153924664,-0.03784251507994866 c-0.8131962375266208,0.4919526960393316 -1.6884685237193957,0.8577636751455009 -2.6009864391118627,1.097432937318507 c-0.3227954530640033,0.08199211600655544 -0.5648920428620036,0.3531968074128536 -0.6145528817949266,0.6811652714390755 l-0.4407399455296953,2.648976055596396 c-0.012415209733230874,0.08199211600655544 -0.0806988632660008,0.13875588862647822 -0.16139772653200174,0.13875588862647822 h-2.613401648845093 c-0.0806988632660008,0 -0.14898251679877042,-0.05676377261992285 -0.16139772653200174,-0.13875588862647822 l-0.43453234066308005,-2.648976055596396 c-0.05586844379953896,-0.33427554987288 -0.2979650335975414,-0.5991731554325191 -0.6145528817949266,-0.6811652714390755 c-0.8876874959260059,-0.23336217632634926 -1.7443369675189342,-0.5928660695858599 -2.5451179953123235,-1.0595904222385584 c-0.1303597021989239,-0.0756850301598971 -0.27934221899769496,-0.11352754523984566 -0.42211713092984987,-0.11352754523984566 c-0.16760533139861683,0 -0.34141826766385047,0.05045668677326483 -0.48419317959600355,0.15767714616645265 l-2.172661703315398,1.5704643758178634 c-0.031038024333077258,0.018921257539974277 -0.062076048666154515,0.031535429233290634 -0.09311407299923179,0.031535429233290634 c-0.02483041946646175,0 -0.07449125839938514,-0.006307085846658111 -0.11794449246569323,-0.05045668677326483 l-1.8498662502513956,-1.8795115823041086 c-0.05586844379953896,-0.05676377261992285 -0.062076048666154515,-0.1450629744731362 -0.01862281459984629,-0.21444091878637553 l1.5270707971873947,-2.175944617097039 c0.1924357508650787,-0.27751177725295706 0.2048509605983092,-0.6433227563591268 0.03724562919969261,-0.9334487053053969 c-0.48419317959600355,-0.8199211600655518 -0.8566494715929295,-1.7092202644443422 -1.0925384565243146,-2.6363618839030796 c-0.08690646813261615,-0.3216613781795636 -0.3476258725304652,-0.5676377261992287 -0.6704213255944672,-0.6244014988191516 l-2.6258168585783244,-0.4541101809593828 c-0.0806988632660008,-0.012614171693316184 -0.13656730706553946,-0.08199211600655544 -0.13656730706553946,-0.16398423201311077 v-2.655283141443054 c0,-0.08199211600655544 0.05586844379953896,-0.15137006031979416 0.13656730706553946,-0.16398423201311077 l2.5885712293786316,-0.44149600926606686 c0.3290030579306184,-0.05676377261992285 0.595930067195083,-0.30274012063958866 0.6766289304610849,-0.6307085846658099 c0.22968138006477112,-0.9271416194587401 0.5835148574618506,-1.8227478096841894 1.0615004321912376,-2.648976055596396 c0.16760533139861683,-0.29012594894627247 0.14898251679877042,-0.6496298422057863 -0.04345323406630811,-0.9208345336120817 l-1.5456936117872409,-2.2074800463303297 c-0.04345323406630811,-0.0630708584665812 -0.03724562919969261,-0.15767714616645265 0.01862281459984629,-0.21444091878637553 l1.8498662502513956,-1.8795115823041086 c0.04345323406630811,-0.044149600926606844 0.08690646813261615,-0.05045668677326483 0.11794449246569323,-0.05045668677326483 c0.03724562919969261,0 0.06828365353277004,0.012614171693316184 0.09311407299923179,0.031535429233290634 l2.141623678982321,1.5515431182778894 c0.2731346141310791,0.19551966124640124 0.6331756963947773,0.20813383293971688 0.9187255202590839,0.03784251507994866 c0.8069886326600066,-0.4919526960393316 1.6822609188527808,-0.8703778468388171 2.594778834245247,-1.110047109011823 c0.31658784819738756,-0.08829920185321374 0.5586844379953899,-0.3531968074128536 0.6145528817949266,-0.6811652714390755 l0.4469475503963108,-2.66789731313637 c0.012415209733230874,-0.08199211600655544 0.0806988632660008,-0.13875588862647822 0.16139772653200174,-0.13875588862647822 h2.613401648845093 c0.0806988632660008,0 0.14898251679877042,0.05676377261992285 0.16139772653200174,0.13875588862647822 l0.43453234066308005,2.6300547980564217 c0.05586844379953896,0.33427554987288 0.2979650335975414,0.605480241279178 0.6207604866615438,0.6874723572857326 c0.937348334858929,0.2396692621730072 1.8312434356515501,0.6117873271258356 2.6630624877780167,1.110047109011823 c0.2855498238643103,0.1702913178597688 0.6393833012613898,0.15767714616645265 0.9125179153924664,-0.03784251507994866 l2.141623678982321,-1.564157289971206 c0.031038024333077258,-0.018921257539974277 0.062076048666154515,-0.031535429233290634 0.09311407299923179,-0.031535429233290634 c0.02483041946646175,0 0.07449125839938514,0.006307085846658111 0.11794449246569323,0.05045668677326483 l1.8498662502513956,1.8795115823041086 c0.05586844379953896,0.05676377261992285 0.062076048666154515,0.1450629744731362 0.01862281459984629,0.21444091878637553 l-1.5332784020540102,2.1885587887903557 c-0.1924357508650787,0.27120469140629777 -0.2048509605983092,0.6370156705124679 -0.03724562919969261,0.9271416194587401 c0.48419317959600355,0.826228245912209 0.8442342618596979,1.7155273502909987 1.0801232467910837,2.6426689697497374 c0.0806988632660008,0.327968464026222 0.3476258725304652,0.5739448120458887 0.6704213255944672,0.6244014988191516 l2.607194043978477,0.4478030951127248 c0.0806988632660008,0.012614171693316184 0.13656730706553946,0.08199211600655544 0.13656730706553946,0.16398423201311077 v2.655283141443054 H29.552172981694994 z" id="svg_3" stroke="none" stroke-opacity="1" fill-opacity="1"/>
	<path fill="#fff" d="M16.36101264013722,10.078632491055247 c-3.538334773970792,0 -6.412455827213733,2.9201807470026933 -6.412455827213733,6.515219679597801 s2.8741210532429413,6.515219679597801 6.412455827213733,6.515219679597801 s6.412455827213733,-2.9201807470026933 6.412455827213733,-6.515219679597801 S19.89934741410801,10.078632491055247 16.36101264013722,10.078632491055247 zM16.36101264013722,21.40615867165317 c-2.613401648845093,0 -4.736402513227568,-2.1570233595570656 -4.736402513227568,-4.81230650100012 s2.123000864382475,-4.81230650100012 4.736402513227568,-4.81230650100012 s4.736402513227568,2.1570233595570656 4.736402513227568,4.81230650100012 S18.974414288982313,21.40615867165317 16.36101264013722,21.40615867165317 z" id="svg_4" stroke="none" stroke-opacity="1" fill-opacity="1"/>
</svg>