<svg xmlns="http://www.w3.org/2000/svg" width="26.383" height="26.383" viewBox="0 0 26.383 26.383"><defs><style>.a{fill:#fff;}</style></defs><path class="a" d="M232.378,897.07l-3.886,3.887-3.886-3.887-1.554,1.555,3.886,3.887-3.886,3.887,1.554,1.555,3.886-3.887,3.886,3.887,1.554-1.555-3.886-3.887,3.886-3.887Z" transform="translate(-215.3 -889.32)"/><path class="a" d="M229.192,890.02a13.192,13.192,0,1,0,13.192,13.192A13.206,13.206,0,0,0,229.192,890.02Zm0,24.184a10.993,10.993,0,1,1,10.993-10.993A11,11,0,0,1,229.192,914.2Z" transform="translate(-216 -890.02)"/></svg>