<svg xmlns="http://www.w3.org/2000/svg" xmlns:xlink="http://www.w3.org/1999/xlink" width="30" height="30" viewBox="0 0 42.699 42.699"><defs><style>.a{fill:#0FC600;}</style><linearGradient id="a" x2="1" y2="2.243" gradientUnits="objectBoundingBox"><stop offset="0" stop-color="#e37619"/><stop offset="1" stop-color="#9c0b19"/></linearGradient></defs><g transform="translate(-1562 -603)"><path class="a" d="M1585.7,603h-3.882v5.823H1576V612.7h5.823v5.823h3.882V612.7h5.823v-3.882H1585.7Z" transform="translate(13.172 0)"/><path class="a" d="M1562,626.7v5.823h32.995V626.7a9.715,9.715,0,0,0-9.7-9.7H1571.7A9.715,9.715,0,0,0,1562,626.7Zm3.882,0a5.83,5.83,0,0,1,5.823-5.823h13.586a5.83,5.83,0,0,1,5.823,5.823v1.941h-25.231Z" transform="translate(0 13.172)"/><path class="a" d="M1574.734,624.468a8.734,8.734,0,1,0-8.734-8.734A8.743,8.743,0,0,0,1574.734,624.468Zm0-13.586a4.852,4.852,0,1,1-4.852,4.852A4.858,4.858,0,0,1,1574.734,610.882Z" transform="translate(3.763 3.764)"/></g></svg>