<svg id="Laag_1" data-name="Laag 1" xmlns="http://www.w3.org/2000/svg" viewBox="0 0 400 400"><defs><style>.cls-1{fill:#1e1e1c;}</style></defs><title>seperate-icons</title><path class="cls-1" d="M199.91,375a35,35,0,0,0,35-35h-70A35,35,0,0,0,199.91,375Z"/><path class="cls-1" d="M217.33,61.38V42.14a17.15,17.15,0,0,0-34.29,0V61.31C123.47,69.56,77.41,120.7,77.41,182.5v80.31l-4,3.94c-16.56,16.14-14.42,30-11.67,36.77,2.19,5.42,9.79,18,33.39,18.13H304.91c23.5,0,31.17-12.64,33.38-18.07,2.77-6.82,4.94-20.66-11.64-36.8l-4.24-4.15V182.5C322.41,120.88,276.63,69.89,217.33,61.38ZM103.1,286.64l9.31-9.09V182.5a87.5,87.5,0,0,1,175,0v94.87l9.49,9.28Z"/></svg>