<svg xmlns="http://www.w3.org/2000/svg" xmlns:xlink="http://www.w3.org/1999/xlink" width="1920" height="2420" viewBox="0 0 1920 2420">
	<defs>
		<style>.a{fill:url(#a);}.b{fill:url(#b);}.c{fill:url(#c);}</style>
		<linearGradient xmlns="http://www.w3.org/2000/svg" id="a" x1="0.611" y1="-0.127" x2="0.551" y2="0.524" gradientUnits="objectBoundingBox"><stop offset="0" stop-color="#9f0b19"/><stop offset="1" stop-color="#e37619"/></linearGradient>
		<linearGradient xmlns="http://www.w3.org/2000/svg" id="b" y1="0.5" x2="1" y2="0.5" gradientUnits="objectBoundingBox"><stop offset="0" stop-color="#f36810"/><stop offset="0.048" stop-color="#eb5d11"/><stop offset="0.27" stop-color="#cd2f16"/><stop offset="0.441" stop-color="#ba1319"/><stop offset="0.54" stop-color="#b3091b"/><stop offset="0.642" stop-color="#a70a1a"/><stop offset="0.796" stop-color="#9d0b19"/><stop offset="0.981" stop-color="#9a0c19"/></linearGradient>
	</defs>
	<ellipse xmlns="http://www.w3.org/2000/svg" class="a" cx="1760" cy="1049" rx="259.5" ry="255"/>
	<path 	 xmlns="http://www.w3.org/2000/svg" class="b" transform="translate(-656.377 2361.084) rotate(-90)" d="M1381.084,656.377H709.54c39.146,79.117,103.2,138.924,196.135,186.452,96.97,49.6,244.722,115.232,352.563,61.012C1348.676,858.431,1373.072,748.977,1381.084,656.377Z"/>
	<path 	 xmlns="http://www.w3.org/2000/svg" class="b" transform="matrix(0.809, -0.588, 0.588, 0.809, 414.713, 2490.592)" d="M2347.3,2259.583S994.178,2203.273,407.353,1670.1-229.1,434.706,0,126.9s481.528-9.979,668.474,158.946c68.6,62.01,116.89,112.474,210.629,133.678,14.252,3.207,28.043,5.809,41.516,7.8,9.182,1.354,18.188,2.423,27.122,3.172,1.666.143,3.3.285,4.928.392q14.571,1.122,28.859,1.1h.035c1.879,0,3.758,0,5.637-.036,10.1-.143,20.138-.713,30.206-1.711a384.3,384.3,0,0,0,49.918-8.232,475.585,475.585,0,0,0,46.089-13.186q9.945-3.368,20.031-6.486,21.113-6.575,42.934-12.117c88.066-22.488,183.719-32.573,275.721-26.942,5.176.321,10.352.677,15.493,1.1,3.155.214,6.311.5,9.466.82q24.569,2.245,48.642,6.094c3.262.535,6.453,1.069,9.678,1.639,5.815,1,11.629,2.1,17.372,3.279q13.667,2.726,27.086,6.059c287.846,71.1,519.215,322.31,506.63,633.823-4.219,103.885-71.793,197.791-56.3,303.387,11.7,79.687,80.373,161.9,127.916,226.551C2250.9,1672.2,2340.7,1812.9,2352.616,1976.581,2360.1,2079.611,2357.261,2175.584,2347.3,2259.583Z"/>
</svg>