<svg xmlns="http://www.w3.org/2000/svg" width="96.63" height="41.693" viewBox="0 0 96.63 41.693"><defs><style>.a{fill:#ad1919;}.b{fill:#0c0e1d;}</style></defs><g transform="translate(0 0.543)"><path class="a" d="M217.052,206.1a4.949,4.949,0,0,0,2.8-1.371,5.23,5.23,0,0,0,.71-3.158,9,9,0,0,0-1.005-4.856,4.771,4.771,0,0,0-2.641-2,17.684,17.684,0,0,0-4.812-.494h-6.7V220.06h7.772a19.563,19.563,0,0,0,5.363-.463,3.227,3.227,0,0,0,1.907-1.725,9.513,9.513,0,0,0,.6-3.88v-2.4a6.746,6.746,0,0,0-.83-3.745A4.972,4.972,0,0,0,217.052,206.1Zm-2.729,7.126a3.134,3.134,0,0,1-.391,1.963,2.868,2.868,0,0,1-1.812.447v-7.23a3.146,3.146,0,0,1,1.851.4,3.4,3.4,0,0,1,.351,2.011Zm-.271-9.345q-.272.487-1.261.487-.239,0-.67.016v-5.746a5.188,5.188,0,0,1,1.4.144,1.074,1.074,0,0,1,.583.614,4.508,4.508,0,0,1,.223,1.7A7.974,7.974,0,0,1,214.051,203.884Z" transform="translate(-205.401 -194.221)"/></g><g transform="translate(16.478)"><path class="a" d="M292.09,194.545a6.132,6.132,0,0,0-2.658-2.035,9.735,9.735,0,0,0-3.727-.678,9.5,9.5,0,0,0-3.83.718,6.175,6.175,0,0,0-3.758,5.019q-.184,1.62-.184,5.514V207.5a54.546,54.546,0,0,0,.192,5.586,6.212,6.212,0,0,0,3.854,4.987,9.735,9.735,0,0,0,3.727.678,9.5,9.5,0,0,0,3.83-.718,6.174,6.174,0,0,0,3.759-5.019q.183-1.62.184-5.514v-4.421a54.52,54.52,0,0,0-.192-5.586A6.116,6.116,0,0,0,292.09,194.545Zm-5.331,16.343a12.788,12.788,0,0,1-.191,2.889.827.827,0,0,1-.878.607.8.8,0,0,1-.854-.527,11.856,11.856,0,0,1-.183-2.777V199.014a5.766,5.766,0,0,1,.279-2.4.917.917,0,0,1,.806-.407.794.794,0,0,1,.822.5,8.01,8.01,0,0,1,.2,2.306Z" transform="translate(-277.933 -191.832)"/></g><g transform="translate(33.423 0.543)"><path class="a" d="M359.246,209.207h4.2v-4.916h-4.2v-4.9h4.485v-5.171h-11.2V220.06h11.651v-5.171h-4.932Z" transform="translate(-352.527 -194.221)"/></g><g transform="translate(45.9 0.543)"><path class="a" d="M417.894,196.894l-1.752-2.673h-8.694v12.027H413.3a7.433,7.433,0,0,1-.256-1.942,6.926,6.926,0,0,1,1.222-4.009l2.444,2.806h2.2l2.444-2.806a6.926,6.926,0,0,1,1.222,4.009,7.433,7.433,0,0,1-.256,1.942h5.865V194.221h-8.742Z" transform="translate(-407.448 -194.221)"/></g><g transform="translate(45.9 14.537)"><path class="a" d="M421.137,257.753a5.976,5.976,0,0,0-2.055,2.445l-1.276.68-1.276-.68,0-.008a5.974,5.974,0,0,0-2.052-2.437l-2.757-1.891.049-.04h-4.319v12.026h5.873l0-1.616,0-1.616,1.233,1.616,1.233,1.616h4.165l1.169-1.816,1.169-1.816,0,1.816,0,1.816h5.873V255.822h-4.335l.049.04Z" transform="translate(-407.448 -255.822)"/></g><g transform="translate(90.071 21.211)"><rect class="a" width="6.033" height="5.171"/></g><g transform="translate(89.544 0.543)"><path class="a" d="M605.6,213.676l1.053-19.455h-7.086l1.053,19.455Z" transform="translate(-599.563 -194.221)"/></g><g transform="translate(53.238 12.61)"><path class="a" d="M439.77,247.524c-.1-.157.208-.17.286-.177a1.181,1.181,0,0,1,.682.116,1.145,1.145,0,0,1,.341.327.8.8,0,0,1,.2.408.3.3,0,0,1-.067.191.354.354,0,0,1-.12.109c-.006,0-.014,0-.017,0a.013.013,0,0,1,0-.01c.009-.048.049-.1.03-.147-.034-.085-.166-.064-.237-.061a1.577,1.577,0,0,1-.6-.058.609.609,0,0,1-.333-.268c-.064-.12-.018-.293-.13-.389A.185.185,0,0,1,439.77,247.524Z" transform="translate(-439.749 -247.341)"/></g><g transform="translate(57.765 12.61)"><path class="a" d="M461.185,247.524c.1-.157-.209-.17-.286-.177a1.181,1.181,0,0,0-.682.116,1.143,1.143,0,0,0-.342.327.8.8,0,0,0-.2.408.3.3,0,0,0,.067.191.358.358,0,0,0,.12.109c.006,0,.014,0,.017,0a.014.014,0,0,0,0-.01c-.009-.048-.05-.1-.03-.147.034-.085.166-.064.236-.061a1.579,1.579,0,0,0,.6-.058.609.609,0,0,0,.333-.268c.065-.12.018-.293.13-.389A.192.192,0,0,0,461.185,247.524Z" transform="translate(-459.677 -247.341)"/></g><g transform="translate(67.771 0.543)"><path class="a" d="M514.165,196.894l-1.752-2.673h-8.694v12.027h5.848a7.431,7.431,0,0,1-.256-1.942,6.926,6.926,0,0,1,1.222-4.009l2.444,2.806h2.2l2.444-2.806a6.926,6.926,0,0,1,1.222,4.009,7.433,7.433,0,0,1-.256,1.942h5.865V194.221h-8.742Z" transform="translate(-503.719 -194.221)"/></g><g transform="translate(67.771 14.537)"><path class="a" d="M517.408,257.753a5.976,5.976,0,0,0-2.055,2.445l-1.276.68-1.276-.68,0-.008a5.975,5.975,0,0,0-2.052-2.437l-2.757-1.891.049-.04h-4.319v12.026h5.873l0-1.616,0-1.616,1.233,1.616,1.233,1.616h4.165l1.169-1.816,1.169-1.816,0,1.816,0,1.816h5.873V255.822h-4.336l.049.04Z" transform="translate(-503.719 -255.822)"/></g><g transform="translate(75.109 12.61)"><path class="a" d="M536.041,247.524c-.1-.157.208-.17.286-.177a1.181,1.181,0,0,1,.682.116,1.141,1.141,0,0,1,.341.327.8.8,0,0,1,.2.408.3.3,0,0,1-.067.191.357.357,0,0,1-.12.109c-.006,0-.014,0-.018,0a.013.013,0,0,1,0-.01c.009-.048.05-.1.03-.147-.034-.085-.166-.064-.237-.061a1.578,1.578,0,0,1-.6-.058.61.61,0,0,1-.333-.268c-.064-.12-.018-.293-.129-.389A.185.185,0,0,1,536.041,247.524Z" transform="translate(-536.02 -247.341)"/></g><g transform="translate(79.636 12.61)"><path class="a" d="M557.456,247.524c.1-.157-.208-.17-.286-.177a1.18,1.18,0,0,0-.682.116,1.142,1.142,0,0,0-.342.327.8.8,0,0,0-.2.408.3.3,0,0,0,.067.191.357.357,0,0,0,.12.109c.006,0,.014,0,.017,0a.014.014,0,0,0,0-.01c-.009-.048-.049-.1-.03-.147.034-.085.166-.064.237-.061a1.578,1.578,0,0,0,.6-.058.608.608,0,0,0,.333-.268c.065-.12.018-.293.13-.389A.194.194,0,0,0,557.456,247.524Z" transform="translate(-555.948 -247.341)"/></g><g transform="translate(0.549 28.956)"><path class="b" d="M214.3,332.553l-.463-6.47a17.241,17.241,0,0,1-.281,2.076l-.828,4.394h-1.417l-.87-4.071a10.844,10.844,0,0,1-.239-1.348l-.112-1.051-.295,6.47h-1.978l.814-8.991h2.441l.912,5.311.743-5.311h2.5l.968,8.991Z" transform="translate(-207.819 -322.593)"/><path class="b" d="M251.438,342.275v-.687a1.339,1.339,0,0,1-1.164.809c-1.445,0-1.7-2.13-1.7-3.154,0-1.052.21-3.1,1.683-3.1a1.307,1.307,0,0,1,1.178.849v-.742h1.754v6.025Zm-.477-4.623c-.575,0-.617,1.24-.617,1.617s.042,1.618.631,1.618c.547,0,.589-1.254.589-1.618S251.522,337.652,250.961,337.652Z" transform="translate(-239.317 -332.314)"/><path class="b" d="M275.139,332.2v4.623h-1.754V332.2h-.6v-1.4h.6v-1.712h1.754v1.712h.715v1.4Z" transform="translate(-258.024 -326.858)"/><path class="b" d="M292.245,342.135a2.319,2.319,0,0,1-1,.216c-1.684,0-2.287-1.7-2.287-3.06,0-1.469.575-3.208,2.4-3.208a2.194,2.194,0,0,1,.884.175v1.483a.671.671,0,0,0-.491-.2c-.842,0-1.024,1.011-1.024,1.631s.14,1.6,1,1.6a.923.923,0,0,0,.519-.175Z" transform="translate(-270.528 -332.268)"/><path class="b" d="M310.632,329.711v-3.693c0-.269-.014-.755-.421-.755-.5,0-.477.62-.477.957v3.491h-1.754v-9.826h1.754v4.745a1.678,1.678,0,0,1,1.487-1.051c1.08,0,1.164.97,1.164,1.779v4.354Z" transform="translate(-285.227 -319.75)"/><path class="b" d="M333.42,325.4a1.066,1.066,0,1,1,1.108-1.065A1.081,1.081,0,0,1,333.42,325.4Zm-.884,6.928V326.3h1.754v6.025Z" transform="translate(-304.03 -322.364)"/><path class="b" d="M349.412,342.275v-3.693c0-.269-.014-.755-.421-.755-.505,0-.477.62-.477.957v3.491h-1.754V336.25h1.754v.944A1.678,1.678,0,0,1,350,336.142c1.08,0,1.164.97,1.164,1.779v4.354Z" transform="translate(-315.197 -332.314)"/><path class="b" d="M375.791,342.652a2.663,2.663,0,0,1-.182,1.146,2.294,2.294,0,0,1-2.245,1.254,2,2,0,0,1-2.2-2.089H372.7c.028.3.14.728.645.728.659,0,.673-.822.673-1.281v-.89c-.281.445-.575.876-1.178.876-1.417,0-1.754-2.049-1.754-3.073s.211-3.181,1.684-3.181a1.424,1.424,0,0,1,1.249.836v-.728h1.767Zm-2.287-5c-.589,0-.631,1.213-.631,1.6s.042,1.6.631,1.6c.547,0,.6-1.24.6-1.6S374.051,337.652,373.5,337.652Z" transform="translate(-333.999 -332.314)"/><path class="b" d="M412.835,329.711v-9.826h1.754v9.826Z" transform="translate(-366.26 -319.75)"/><path class="b" d="M426.6,325.4a1.066,1.066,0,1,1,1.108-1.065A1.081,1.081,0,0,1,426.6,325.4Zm-.884,6.928V326.3h1.754v6.025Z" transform="translate(-376.042 -322.364)"/><path class="b" d="M443.028,329.711,441.7,326.6v3.114h-1.754v-9.826H441.7V326l1.038-2.318h1.824l-1.375,2.521,1.7,3.5Z" transform="translate(-387.209 -319.75)"/><path class="b" d="M467.676,340.2a2.672,2.672,0,0,1-.673,1.725,1.8,1.8,0,0,1-1.361.472,1.981,1.981,0,0,1-1.5-.539,3.261,3.261,0,0,1-.856-2.439,3.822,3.822,0,0,1,.912-2.723,1.977,1.977,0,0,1,1.431-.553,1.9,1.9,0,0,1,1.347.485,3.284,3.284,0,0,1,.814,2.345,4.342,4.342,0,0,1-.042.593h-2.778a2.532,2.532,0,0,0-.014.337,1.73,1.73,0,0,0,.253,1.065.48.48,0,0,0,.365.162.569.569,0,0,0,.351-.108,1.4,1.4,0,0,0,.266-.822Zm-1.417-1.671a1.485,1.485,0,0,0-.281-.984.535.535,0,0,0-.323-.121.574.574,0,0,0-.393.162,1.6,1.6,0,0,0-.266.943Z" transform="translate(-405.249 -332.314)"/><path class="b" d="M505.359,342.275v-.687a1.339,1.339,0,0,1-1.164.809c-1.445,0-1.7-2.13-1.7-3.154,0-1.052.21-3.1,1.683-3.1a1.307,1.307,0,0,1,1.178.849v-.742h1.754v6.025Zm-.477-4.623c-.575,0-.617,1.24-.617,1.617s.042,1.618.631,1.618c.547,0,.589-1.254.589-1.618S505.444,337.652,504.883,337.652Z" transform="translate(-435.554 -332.314)"/><path class="b" d="M547.71,342.641h-1.445a32.3,32.3,0,0,1-.954-3.774,29.456,29.456,0,0,1-.87,3.774h-1.459l-1.768-6.025h1.7c.308,1.173.645,2.345.856,3.545l.828-3.545h1.5c.28,1.173.589,2.345.8,3.545.253-1.186.575-2.359.884-3.545h1.655Z" transform="translate(-465.475 -332.68)"/><path class="b" d="M581.639,342.4c-1.8,0-2.385-1.672-2.385-3.127s.589-3.127,2.385-3.127c1.866,0,2.357,1.631,2.357,3.127S583.491,342.4,581.639,342.4Zm0-4.745c-.575,0-.617,1.227-.617,1.617s.042,1.618.617,1.618c.547,0,.589-1.254.589-1.618S582.186,337.652,581.639,337.652Z" transform="translate(-494.873 -332.314)"/><path class="b" d="M605.128,329.711v-9.826h1.754v9.826Z" transform="translate(-514.869 -319.75)"/><path class="b" d="M619.075,324.629v4.623h-1.754v-4.623h-.645v-1.4h.645v-2.035a2.249,2.249,0,0,1,.182-1.092,1.79,1.79,0,0,1,1.613-.809,2.412,2.412,0,0,1,.757.135v1.617a.632.632,0,0,0-.309-.094c-.449,0-.491.4-.491.741v1.536h.8v1.4Z" transform="translate(-523.793 -319.292)"/></g></svg>