<svg xmlns="http://www.w3.org/2000/svg" xmlns:xlink="http://www.w3.org/1999/xlink" width="22" height="23" viewBox="0 0 22 23"><defs><style>.a{fill:url(#a);}</style><linearGradient id="a" x1="-0.95" y1="-1.949" x2="0.727" y2="2.081" gradientUnits="objectBoundingBox"><stop offset="0" stop-color="#9c0b19"/><stop offset="1" stop-color="#e37619"/></linearGradient></defs><g transform="translate(-1076 -1034)"><path class="a" d="M1080,1034v6h2v-2h10v-2h-10v-2Z"/><rect class="a" width="2" height="2" transform="translate(1080 1046)"/><rect class="a" width="2" height="2" transform="translate(1084 1046)"/><rect class="a" width="2" height="2" transform="translate(1088 1046)"/><rect class="a" width="2" height="2" transform="translate(1092 1046)"/><rect class="a" width="2" height="2" transform="translate(1080 1050)"/><rect class="a" width="2" height="2" transform="translate(1084 1050)"/><rect class="a" width="2" height="2" transform="translate(1088 1050)"/><rect class="a" width="2" height="2" transform="translate(1092 1050)"/><path class="a" d="M1098,1043v-7h-3v-2h-2v6h2v-2h1v3h-18v-3h1v-2h-3v21h22Zm-2,12h-18v-12h18Z"/></g></svg>