<svg xmlns="http://www.w3.org/2000/svg" width="67" height="67" viewBox="0 0 67 67"><defs><style>.a{fill:#00032b;}.b{fill:#fff;}</style></defs><g transform="translate(-1821 -988.946)"><circle class="a" cx="33.5" cy="33.5" r="33.5" transform="translate(1821 988.946)"/><g transform="translate(1816.465 988.401)"><path class="b" d="M47.842,28.423c0-7.194-7.308-13.056-16.276-13.056S15.3,21.229,15.3,28.423A11.868,11.868,0,0,0,20.366,37.9l.266,8.355,6.9-5.2a19.411,19.411,0,0,0,4.036.416C40.534,41.476,47.842,35.617,47.842,28.423ZM31.566,38.786a14.8,14.8,0,0,1-4.48-.543l-4.37,3.769-.18-5.826a8.849,8.849,0,0,1-4.554-7.763c0-5.731,6.084-10.365,13.583-10.365s13.587,4.634,13.587,10.365S39.076,38.786,31.566,38.786Zm17.6-14.817a11.981,11.981,0,0,1,1.209,5.2A13.247,13.247,0,0,1,45.1,39.448a19.824,19.824,0,0,1-12.34,4.12c-.1,0-.2-.011-.3-.011a17.089,17.089,0,0,0,10.38,3.368,18.543,18.543,0,0,0,3.736-.385l6.363,4.79.233-7.706a10.924,10.924,0,0,0,4.676-8.752C57.852,30.049,54.295,25.893,49.168,23.969Z" transform="translate(0 0)"/></g></g></svg>