<svg id="Laag_1" data-name="Laag 1" xmlns="http://www.w3.org/2000/svg" viewBox="0 0 400 400"><defs><style>.cls-1{fill:#1e1e1c;}.cls-2{fill:#010101;}</style></defs><title>seperate-icons</title><path class="cls-1" d="M297.73,61.55H273.15V90.32h24.58a1.46,1.46,0,0,1,1.44,1.44v253a1.46,1.46,0,0,1-1.44,1.44H102.27a1.46,1.46,0,0,1-1.44-1.44v-253a1.46,1.46,0,0,1,1.44-1.44h24.58V61.55H102.27A30.25,30.25,0,0,0,72.05,91.76v253A30.25,30.25,0,0,0,102.27,375H297.73A30.25,30.25,0,0,0,328,344.79v-253A30.25,30.25,0,0,0,297.73,61.55Z"/><path class="cls-1" d="M252.23,90.81a19.5,19.5,0,0,0,3.35-.29V80.14A55.14,55.14,0,0,0,200.44,25h0A55.14,55.14,0,0,0,145.3,80.14V90.52a19.5,19.5,0,0,0,3.35.29ZM200,44a13.35,13.35,0,1,1-13.34,13.35A13.35,13.35,0,0,1,200,44Z"/><path class="cls-2" d="M187.84,210.94,184.31,158q-1-15.47-1-22.21,0-9.17,4.8-14.31t12.65-5.13q9.51,0,12.71,6.57t3.2,18.95a146.26,146.26,0,0,1-.77,14.81l-4.75,54.47q-.78,9.72-3.32,14.92a8.67,8.67,0,0,1-8.39,5.19q-6,0-8.29-5T187.84,210.94Zm12.27,72.7a17.41,17.41,0,0,1-11.77-4.36q-5-4.36-5-12.21a16.39,16.39,0,0,1,16.57-16.46,16.39,16.39,0,0,1,11.88,4.8,15.73,15.73,0,0,1,4.91,11.66q0,7.74-5,12.15A16.89,16.89,0,0,1,200.11,283.64Z"/></svg>