<svg id="Laag_1" data-name="Laag 1" xmlns="http://www.w3.org/2000/svg" viewBox="0 0 400 400"><defs><style>.cls-1,.cls-2{fill:#ff3bd9;}.cls-1{fill-rule:evenodd;}</style></defs><title>seperate-icons</title><path class="cls-1" d="M290.55,291l-.34,52.18H83.36V57H290.21v52.13H321.7V41c0-9-6.84-16-15.57-16H67.44A15.88,15.88,0,0,0,51.51,41v318A15.93,15.93,0,0,0,67.44,375H306.13a15.7,15.7,0,0,0,15.57-15.92V291Z"/><polygon class="cls-2" points="274.29 159.53 260.8 159.53 260.8 193.25 227.08 193.25 227.08 206.75 260.8 206.75 260.8 240.47 274.29 240.47 274.29 206.75 308.02 206.75 308.02 193.25 274.29 193.25 274.29 159.53"/><path class="cls-2" d="M267.55,119.06A80.94,80.94,0,1,0,348.49,200,81,81,0,0,0,267.55,119.06Zm0,148.39A67.45,67.45,0,1,1,335,200,67.52,67.52,0,0,1,267.55,267.45Z"/></svg>