<svg id="Laag_1" data-name="Laag 1" xmlns="http://www.w3.org/2000/svg" viewBox="0 0 400 400"><defs><style>.cls-1{fill:#E37619;}</style></defs><title>seperate-icons</title><path class="cls-1" d="M141.73,207.44l-11.64,56.75a4.9,4.9,0,0,0,5.72,5.72l56.75-11.64,2.48-1.34,122-122a2.44,2.44,0,0,0,0-3.46L268.58,82.91a2.44,2.44,0,0,0-3.46,0L143.07,205Z"/><path class="cls-1" d="M333,235H312a7,7,0,0,0-7,7v98H60V95h80.5a7,7,0,0,0,7-7V67a7,7,0,0,0-7-7h-98A17.5,17.5,0,0,0,25,77.5v280A17.5,17.5,0,0,0,42.5,375h280A17.51,17.51,0,0,0,340,357.5V242A7,7,0,0,0,333,235Z"/><path class="cls-1" d="M371.41,63.24,336.76,28.59a12.23,12.23,0,0,0-17.32,0L293.86,54.17a3.49,3.49,0,0,0,0,4.95l47,47a3.49,3.49,0,0,0,4.95,0l25.58-25.58A12.23,12.23,0,0,0,371.41,63.24Z"/></svg>