<svg id="Laag_1" data-name="Laag 1" xmlns="http://www.w3.org/2000/svg" viewBox="0 0 400 400"><defs><style>.cls-1,.cls-2{fill:#fff;}.cls-1{fill-rule:evenodd;}</style></defs><title>seperate-icons</title><path class="cls-1" d="M289.88,291l-.34,52.18H82.69V57H289.54v52.13H321V41c0-9-6.84-16-15.57-16H66.77A15.88,15.88,0,0,0,50.84,41v318A15.93,15.93,0,0,0,66.77,375H305.46A15.7,15.7,0,0,0,321,359.08V291Z"/><path class="cls-2" d="M231.78,127.23c-40.78,0-79.73,23-112.62,66.5L114.41,200l4.75,6.28c32.9,43.5,71.84,66.49,112.62,66.49s79.73-23,112.62-66.47l4.76-6.3-4.75-6.27C311.51,150.22,272.56,127.23,231.78,127.23ZM200.55,200.1a31.25,31.25,0,1,1,31.24,31.24A31.28,31.28,0,0,1,200.55,200.1Zm-59.86-.1c27.42-33.75,58.5-51.61,90.32-51.88a51.9,51.9,0,0,0-6.65,103.29C194.88,248.87,166.19,231.38,140.69,200Zm98.59,51.41a51.91,51.91,0,0,0-6.65-103.29c31.79.31,62.85,18.16,90.24,51.88C297.39,231.36,268.73,248.84,239.28,251.41Z"/></svg>