<svg id="Laag_1" data-name="Laag 1" xmlns="http://www.w3.org/2000/svg" viewBox="0 0 400 400"><defs><style>.cls-1{fill:#1e1e1c;}.cls-2{fill:#010101;}</style></defs><title>seperate-icons</title><path class="cls-1" d="M297.73,61.55H273.15V90.32h24.58a1.46,1.46,0,0,1,1.44,1.44v253a1.46,1.46,0,0,1-1.44,1.44H102.27a1.46,1.46,0,0,1-1.44-1.44v-253a1.46,1.46,0,0,1,1.44-1.44h24.58V61.55H102.27A30.25,30.25,0,0,0,72.05,91.76v253A30.25,30.25,0,0,0,102.27,375H297.73A30.25,30.25,0,0,0,328,344.79v-253A30.25,30.25,0,0,0,297.73,61.55Z"/><path class="cls-1" d="M252.23,90.81a19.5,19.5,0,0,0,3.35-.29V80.14A55.14,55.14,0,0,0,200.44,25h0A55.14,55.14,0,0,0,145.3,80.14V90.52a19.5,19.5,0,0,0,3.35.29ZM200,44a13.35,13.35,0,1,1-13.34,13.35A13.35,13.35,0,0,1,200,44Z"/><polygon class="cls-2" points="265.53 158.47 165.63 258.38 136.03 222.05 118.63 236.22 163.93 291.82 281.4 174.34 265.53 158.47"/></svg>