<svg id="Laag_1" data-name="Laag 1" xmlns="http://www.w3.org/2000/svg" viewBox="0 0 400 400"><defs><style>.cls-1{fill:#1e1e1c;}</style></defs><title>seperate-icons</title><polygon class="cls-1" points="214.5 375 214.5 190.17 249.88 225.53 272.27 203.12 198.21 129.09 124.14 203.12 146.53 225.53 182.84 189.24 182.84 375 214.5 375"/><path class="cls-1" d="M200,25C104.94,25,27.6,102.31,27.6,197.37c0,83.34,59.46,153.05,138.17,169V333.59c-61-15.34-106.38-70.5-106.38-136.22,0-77.53,63.08-140.61,140.61-140.61s140.61,63.08,140.61,140.61c0,67.48-47.77,124-111.26,137.49v32.22c81.1-14,143-84.67,143-169.71C372.4,102.31,295.05,25,200,25Z"/></svg>