<svg xmlns="http://www.w3.org/2000/svg" width="33.857" height="33.857" viewBox="0 0 33.857 33.857"><defs><style>.a{fill:#00032b;}</style></defs><g transform="translate(0 0)"><path class="a" d="M20.793,15.257H-.136A6.463,6.463,0,0,1-6.6,8.793v-20.93A6.463,6.463,0,0,1-.136-18.6h20.93a6.463,6.463,0,0,1,6.464,6.464V8.793A6.463,6.463,0,0,1,20.793,15.257ZM-.136-15.522a3.376,3.376,0,0,0-3.386,3.386V8.793A3.376,3.376,0,0,0-.136,12.179h20.93a3.376,3.376,0,0,0,3.386-3.386v-20.93a3.376,3.376,0,0,0-3.386-3.386Z" transform="translate(6.6 18.6)"/><path class="a" d="M18.266,8.354,16.654,6.765l-7.13,7.13L2.372,6.765.76,8.354l7.153,7.153L.76,22.66l1.612,1.589L9.524,17.1l7.13,7.153,1.612-1.589-7.153-7.153Z" transform="translate(7.086 0.975)"/></g></svg>