<svg xmlns="http://www.w3.org/2000/svg" width="48.836" height="54.404" viewBox="0 0 48.836 54.404"><defs><style>.a,.b{fill:#e37619;}.b{fill-rule:evenodd;}</style></defs><g transform="translate(-943 -884.221)"><g transform="translate(943 884.221)"><g transform="translate(0)"><g transform="translate(10.465 14.886)"><path class="a" d="M97.153,68.564c6.66,0,13.022-3.816,18.4-11.039l.785-1.055-.785-1.055c-5.377-7.224-11.741-11.043-18.4-11.043s-13.024,3.82-18.4,11.043l-.785,1.055.785,1.055C84.131,64.748,90.493,68.564,97.153,68.564Zm0-20.713c5.243,0,10.371,2.973,14.888,8.618-4.519,5.641-9.645,8.614-14.888,8.614S86.784,62.11,82.268,56.469C86.783,50.824,91.909,47.851,97.153,47.851Z" transform="translate(-77.969 -44.37)"/><path class="a" d="M91.191,61.016A6.962,6.962,0,1,0,84.4,54.056,6.884,6.884,0,0,0,91.191,61.016Zm0-10.44a3.481,3.481,0,1,1-3.4,3.481A3.442,3.442,0,0,1,91.191,50.576Z" transform="translate(-72.081 -41.875)"/></g><g transform="translate(0 0)"><path class="b" d="M111.13,86.057l.057-7.952h5.038V88.528A2.49,2.49,0,0,1,113.706,91H75.084a2.529,2.529,0,0,1-2.578-2.475V39.089a2.52,2.52,0,0,1,2.578-2.49h38.622a2.481,2.481,0,0,1,2.519,2.49v9.543h-5.1V41.566H77.661V86.057Z" transform="translate(-72.506 -36.599)"/></g></g></g></g></svg>