<svg xmlns="http://www.w3.org/2000/svg" xmlns:xlink="http://www.w3.org/1999/xlink" width="30.489" height="42.035" viewBox="0 0 30.489 42.035"><defs><style>.a{fill:url(#a);}.b{fill:url(#b);}</style><linearGradient id="a" x2="1" y2="2.243" gradientUnits="objectBoundingBox"><stop offset="0" stop-color="#e37619"/><stop offset="1" stop-color="#9c0b19"/></linearGradient><linearGradient id="b" x1="0.5" x2="0.5" y2="1" gradientUnits="objectBoundingBox"><stop offset="0" stop-color="#9c0b19"/><stop offset="1" stop-color="#e37619"/></linearGradient></defs><g transform="translate(-948.347 -136.514)"><g transform="translate(-619 -466.486)"><path class="a" d="M1581.415,603h-2.166v3.249H1576v2.166h3.249v3.249h2.166v-3.249h3.249v-2.166h-3.249Z" transform="translate(13.172 0)"/></g><g transform="translate(113.619 68.552)"><g transform="translate(836.606 76.94)"><path class="b" d="M860.157,110H840.623V76.94h19.534Zm-17.468-2.066h15.4V79.006h-15.4Z" transform="translate(-840.623 -76.94)"/></g><g transform="translate(834.728 107.931)"><rect class="b" width="23.29" height="2.066"/></g><g transform="translate(841.436 80.936)"><g transform="translate(0 5.75)"><rect class="b" width="9.873" height="2.066"/></g><g transform="translate(0 11.499)"><rect class="b" width="9.873" height="2.066"/></g><g transform="translate(0 17.249)"><rect class="b" width="9.873" height="2.066"/></g><g transform="translate(0 0)"><rect class="b" width="9.873" height="2.066"/></g><g transform="translate(0 22.999)"><rect class="b" width="9.873" height="2.066"/></g></g></g></g></svg>