<svg xmlns="http://www.w3.org/2000/svg" width="13.043" height="15" viewBox="0 0 13.043 15"><defs><style>.a{fill:#9c0b19;}</style></defs><g transform="translate(-1370 -699)"><path class="a" d="M1381.13,714.13a.653.653,0,0,1-.652.652h-6.522a.653.653,0,0,1-.652-.652V705H1372v9.13a1.959,1.959,0,0,0,1.956,1.957h6.522a1.959,1.959,0,0,0,1.957-1.957V705h-1.3Z" transform="translate(-0.696 -2.087)"/><path class="a" d="M1379.783,700.3a1.306,1.306,0,0,0-1.3-1.3h-3.913a1.306,1.306,0,0,0-1.3,1.3v.652H1370v1.3h13.043v-1.3h-3.261Zm-5.217,0h3.913v.652h-3.913Z"/><rect class="a" width="1.304" height="7.826" transform="translate(1375.87 703.565)"/><rect class="a" width="1.304" height="7.826" transform="translate(1373.913 703.565)"/><rect class="a" width="1.304" height="7.826" transform="translate(1377.826 703.565)"/></g></svg>