<svg id="Laag_1" data-name="Laag 1" xmlns="http://www.w3.org/2000/svg" viewBox="0 0 400 400"><defs><style>.cls-1{fill:#1e1e1c;}</style></defs><title>seperate-icons</title><path class="cls-1" d="M78.26,329.35A45.7,45.7,0,0,0,123.91,375H276.09a45.7,45.7,0,0,0,45.65-45.65V101.09h30.43V70.65H276.09V55.43A30.47,30.47,0,0,0,245.65,25h-91.3a30.47,30.47,0,0,0-30.44,30.43V70.65H47.83v30.44H78.26ZM154.35,55.43h91.3V70.65h-91.3Zm137,45.66V329.35a15.23,15.23,0,0,1-15.21,15.22H123.91a15.23,15.23,0,0,1-15.21-15.22V101.09Z"/><rect class="cls-1" x="184.78" y="131.52" width="30.43" height="182.61"/><rect class="cls-1" x="139.13" y="131.52" width="30.43" height="182.61"/><rect class="cls-1" x="230.43" y="131.52" width="30.43" height="182.61"/></svg>