<svg xmlns="http://www.w3.org/2000/svg" xmlns:xlink="http://www.w3.org/1999/xlink" width="209.317" height="49.498" viewBox="0 0 209.317 49.498"><defs><style>.a{fill:url(#a);}.b{fill:#00032b;}.c{fill:#9f0b19;}</style><linearGradient id="a" y1="0.5" x2="1" y2="0.5" gradientUnits="objectBoundingBox"><stop offset="0" stop-color="#f27c00"/><stop offset="0.139" stop-color="#db5403"/><stop offset="0.32" stop-color="#c12607"/><stop offset="0.46" stop-color="#b10a0a"/><stop offset="0.54" stop-color="#ab000b"/><stop offset="0.57" stop-color="#a8000b"/><stop offset="0.757" stop-color="#9e000c"/><stop offset="0.981" stop-color="#9b000d"/></linearGradient></defs><g transform="translate(-117 -80)"><g transform="translate(117 80)"><path class="a" d="M102.789,264.477h15.236a2.084,2.084,0,0,0,0-4.168l-12.668-.024a2.118,2.118,0,1,1,0-4.216l26.915-.024a2.317,2.317,0,0,0,2.106-2.538,2.277,2.277,0,0,0-2.217-2.162H110.772c-3.6,0-3.453-4.361-.073-4.361l20.916.036a2.071,2.071,0,0,0,2.061-2.169h0a2.217,2.217,0,0,0-2.1-2.483l-17.263.024c-3.416,0-3.4-4.264-.133-4.276l20.97-.049a2.382,2.382,0,0,0,2.266-2.441,2.3,2.3,0,0,0-2.29-2.508l-27.2-.055c-2.853.037-2.823-4.276-.115-4.276l18.9-.085a2.287,2.287,0,0,0,2.122-2.266,2.09,2.09,0,0,0-2.084-2.084l-22.117-.121c-2.907,0-2.726-4.289-.073-4.252l22.788-.036c16.827-.145,30.3,8.965,30.2,24.714-.1,17.4-12.6,24.181-30.626,24.278l-23.938-.145C99.924,268.741,99.784,264.5,102.789,264.477Zm-.77-35.672a2.152,2.152,0,1,0,2.152,2.152A2.152,2.152,0,0,0,102.019,228.805ZM86.626,246.786a2.152,2.152,0,1,0,2.152,2.152A2.152,2.152,0,0,0,86.626,246.786Zm9.256-17.981a2.152,2.152,0,1,0,2.152,2.152A2.152,2.152,0,0,0,95.882,228.805Zm-5.721,0a2.152,2.152,0,1,0,2.152,2.152A2.152,2.152,0,0,0,90.161,228.805Zm-.416-8.842a2.152,2.152,0,1,0,2.152,2.152A2.152,2.152,0,0,0,89.745,219.963Zm-6.15,4.3H80.712a2.276,2.276,0,0,1-2.27-2.27h0a2.276,2.276,0,0,1,2.27-2.27h2.883a2.276,2.276,0,0,1,2.27,2.27h0A2.276,2.276,0,0,1,83.594,224.266Zm15.347.221H96.059a2.276,2.276,0,0,1-2.27-2.27h0a2.276,2.276,0,0,1,2.27-2.27h2.883a2.276,2.276,0,0,1,2.27,2.27h0A2.276,2.276,0,0,1,98.942,224.488Zm8.7,18.1h-2.882a2.276,2.276,0,0,1-2.269-2.27h0a2.276,2.276,0,0,1,2.269-2.27h2.882a2.276,2.276,0,0,1,2.27,2.27h0A2.276,2.276,0,0,1,107.637,242.587Zm-8.972,0H95.783a2.276,2.276,0,0,1-2.269-2.27h0a2.276,2.276,0,0,1,2.269-2.27h2.883a2.276,2.276,0,0,1,2.27,2.27h0A2.276,2.276,0,0,1,98.666,242.587Zm5.643,8.738h-2.883a2.276,2.276,0,0,1-2.27-2.27h0a2.276,2.276,0,0,1,2.27-2.27h2.883a2.276,2.276,0,0,1,2.27,2.27h0A2.276,2.276,0,0,1,104.309,251.325Zm-8.9,0H92.522a2.276,2.276,0,0,1-2.27-2.27h0a2.276,2.276,0,0,1,2.27-2.27H95.4a2.276,2.276,0,0,1,2.27,2.27h0A2.276,2.276,0,0,1,95.4,251.325Zm3.851,8.964H94.474a2.012,2.012,0,0,1-1.892-2.07h0a2.1,2.1,0,0,1,1.913-2.142h4.736a2.146,2.146,0,0,1,1.972,2.142h0A2.058,2.058,0,0,1,99.256,260.289Zm-9.674,0H84.8a2.012,2.012,0,0,1-1.892-2.07h0a2.1,2.1,0,0,1,1.913-2.142h4.736a2.146,2.146,0,0,1,1.972,2.142h0A2.058,2.058,0,0,1,89.582,260.289Zm8.009,8.322H92.81a2.012,2.012,0,0,1-1.892-2.071h0a2.1,2.1,0,0,1,1.913-2.142h4.736a2.145,2.145,0,0,1,1.972,2.142h0A2.058,2.058,0,0,1,97.591,268.611Zm-10.064,0H82.746a2.012,2.012,0,0,1-1.892-2.071h0a2.1,2.1,0,0,1,1.913-2.142H87.5a2.145,2.145,0,0,1,1.972,2.142h0A2.058,2.058,0,0,1,87.527,268.611Z" transform="translate(-78.442 -219.727)"/><g transform="translate(88.542 0.137)"><path class="b" d="M362.176,232.478v-9.86a.848.848,0,0,1,.949-.932h3.234a5.865,5.865,0,1,1,0,11.723h-3.234A.848.848,0,0,1,362.176,232.478Zm4.183-.615a4.315,4.315,0,0,0,0-8.629h-2.425v8.629Z" transform="translate(-362.176 -221.212)"/><path class="b" d="M400.985,221.168a1.017,1.017,0,0,1,1.02-1,1,1,0,0,1,1.02,1,1.02,1.02,0,0,1-1.02,1.02A1.032,1.032,0,0,1,400.985,221.168Zm.246,10.493v-7.083a.788.788,0,0,1,.791-.791.8.8,0,0,1,.791.791v7.083a.8.8,0,0,1-.808.791A.784.784,0,0,1,401.231,231.66Z" transform="translate(-388.874 -220.166)"/><path class="b" d="M421.363,232.288v7.452c0,2.918-2.127,3.779-4.218,3.779a4.643,4.643,0,0,1-3.058-.914.7.7,0,0,1-.281-.545.667.667,0,0,1,.668-.668.683.683,0,0,1,.4.123,3.4,3.4,0,0,0,2.267.7,2.345,2.345,0,0,0,2.636-2.425v-1.125a3.545,3.545,0,0,1-2.795,1.476c-2.2,0-3.778-1.617-3.778-4.394,0-2.724,1.582-4.376,3.778-4.376a3.464,3.464,0,0,1,2.795,1.441v-.527a.788.788,0,0,1,.791-.791A.8.8,0,0,1,421.363,232.288Zm-1.582,5.185v-3.445a2.959,2.959,0,0,0-2.355-1.248c-1.582,0-2.566,1.23-2.566,2.97,0,1.758.984,2.988,2.566,2.988A2.974,2.974,0,0,0,419.781,237.473Z" transform="translate(-397.283 -227.876)"/><path class="b" d="M446.61,221.168a1.017,1.017,0,0,1,1.02-1,1,1,0,0,1,1.019,1,1.02,1.02,0,0,1-1.019,1.02A1.032,1.032,0,0,1,446.61,221.168Zm.246,10.493v-7.083a.788.788,0,0,1,.791-.791.8.8,0,0,1,.791.791v7.083a.8.8,0,0,1-.809.791A.784.784,0,0,1,446.856,231.66Z" transform="translate(-420.261 -220.166)"/><path class="b" d="M461.842,234.6a.6.6,0,0,1-.4.6,2.842,2.842,0,0,1-1.212.246,1.847,1.847,0,0,1-2.022-2.091v-5.22H457.4a.694.694,0,1,1,0-1.388h.808v-1.617a.788.788,0,0,1,.791-.791.8.8,0,0,1,.791.791v1.617h1.107a.694.694,0,1,1,0,1.388h-1.107V233c0,.6.281,1.037.826,1.037.3,0,.4-.105.562-.105A.636.636,0,0,1,461.842,234.6Z" transform="translate(-427.197 -223.033)"/><path class="b" d="M483.493,234.344v5.027a.791.791,0,1,1-1.581,0v-.246a3.564,3.564,0,0,1-2.777,1.16,2.821,2.821,0,0,1-2.952-2.812,2.74,2.74,0,0,1,2.952-2.777,3.54,3.54,0,0,1,2.777,1.125v-1.406c0-1.054-.861-1.687-2.074-1.687a3.242,3.242,0,0,0-2.092.738.721.721,0,0,1-.386.123.645.645,0,0,1-.633-.65.616.616,0,0,1,.263-.51,4.754,4.754,0,0,1,3.094-1.054C481.929,231.374,483.493,232.183,483.493,234.344Zm-1.581,3.867V236.77a2.69,2.69,0,0,0-2.179-.967,1.705,1.705,0,1,0,0,3.375A2.689,2.689,0,0,0,481.911,238.211Z" transform="translate(-440.605 -227.876)"/><path class="b" d="M507.724,232.513V222.2a.788.788,0,0,1,.791-.791.8.8,0,0,1,.791.791v10.317a.8.8,0,0,1-.791.791A.788.788,0,0,1,507.724,232.513Z" transform="translate(-462.304 -221.018)"/><path class="b" d="M362.176,298.8v-10a.848.848,0,0,1,.949-.931h3.989a3.606,3.606,0,1,1,0,7.206h-3.181V298.8a.878.878,0,0,1-.861.879A.9.9,0,0,1,362.176,298.8Zm4.711-9.385h-2.953v4.113h2.953a2.059,2.059,0,1,0,0-4.113Z" transform="translate(-362.176 -266.743)"/><path class="b" d="M400.3,300.528v5.027a.791.791,0,0,1-1.582,0v-.246a3.566,3.566,0,0,1-2.777,1.16,2.821,2.821,0,0,1-2.953-2.812,2.74,2.74,0,0,1,2.953-2.777A3.541,3.541,0,0,1,398.717,302V300.6c0-1.055-.861-1.687-2.074-1.687a3.241,3.241,0,0,0-2.091.738.723.723,0,0,1-.387.123.645.645,0,0,1-.633-.65.615.615,0,0,1,.264-.509,4.75,4.75,0,0,1,3.093-1.055C398.734,297.558,400.3,298.366,400.3,300.528Zm-1.582,3.867v-1.441a2.688,2.688,0,0,0-2.179-.967,1.7,1.7,0,1,0,0,3.374A2.689,2.689,0,0,0,398.717,304.395Z" transform="translate(-383.372 -273.407)"/><path class="b" d="M422.888,308.55c.053,0,.105.018.193.018a1.173,1.173,0,0,0,1.23-.826l.492-1.125-3.111-7.575a.869.869,0,0,1-.035-.3.773.773,0,0,1,.773-.791.814.814,0,0,1,.738.492l2.478,6.257,2.478-6.257a.794.794,0,0,1,1.529.3,1.031,1.031,0,0,1-.07.316l-3.761,9.087a2.67,2.67,0,0,1-2.706,1.828,2.107,2.107,0,0,1-.316-.018.707.707,0,0,1-.65-.7A.724.724,0,0,1,422.888,308.55Z" transform="translate(-403.096 -273.678)"/><path class="b" d="M456.988,298.539c0,.369-.281.685-.826.756a3.027,3.027,0,0,0-2.056,1.213v5.2a.8.8,0,0,1-.791.791.788.788,0,0,1-.791-.791v-7.083a.784.784,0,0,1,.774-.791.8.8,0,0,1,.809.791v.6a3.851,3.851,0,0,1,1.758-1.353,1.713,1.713,0,0,1,.457-.088A.67.67,0,0,1,456.988,298.539Z" transform="translate(-424.33 -273.562)"/><path class="b" d="M469.873,302a4.292,4.292,0,1,1,4.288,4.464A4.214,4.214,0,0,1,469.873,302Zm6.925,0c0-1.6-.932-3.041-2.636-3.041A2.76,2.76,0,0,0,471.525,302c0,1.617.949,3.058,2.636,3.058C475.866,305.062,476.8,303.621,476.8,302Z" transform="translate(-436.265 -273.407)"/><path class="b" d="M503.781,298.7V288.38a.788.788,0,0,1,.791-.791.8.8,0,0,1,.791.791V298.7a.8.8,0,0,1-.791.791A.788.788,0,0,1,503.781,298.7Z" transform="translate(-459.592 -266.549)"/><path class="b" d="M516.9,298.7V288.38a.788.788,0,0,1,.791-.791.8.8,0,0,1,.791.791V298.7a.8.8,0,0,1-.791.791A.788.788,0,0,1,516.9,298.7Z" transform="translate(-468.62 -266.549)"/><path class="b" d="M543.039,297.4a.855.855,0,0,1,.843-.844.906.906,0,0,1,.528.175,4.914,4.914,0,0,0,3.111,1.125c1.9,0,2.566-.967,2.566-1.81,0-1.23-1.336-1.582-2.83-1.969-1.88-.492-4.06-1.037-4.06-3.427,0-1.934,1.7-3.339,4.288-3.339a5.966,5.966,0,0,1,3.621,1.142.775.775,0,0,1,.369.668.84.84,0,0,1-.826.844.863.863,0,0,1-.492-.158,4.544,4.544,0,0,0-2.812-.931c-1.441,0-2.337.668-2.337,1.652,0,1.054,1.265,1.388,2.724,1.758,1.916.51,4.148,1.108,4.148,3.6,0,1.828-1.265,3.533-4.429,3.533a6.243,6.243,0,0,1-4.078-1.353A.857.857,0,0,1,543.039,297.4Z" transform="translate(-486.599 -266.356)"/><path class="b" d="M580.356,297.558a4.067,4.067,0,0,1,4.13,4.218c0,.475-.334.756-.932.756h-5.782a2.784,2.784,0,0,0,2.882,2.636,3.632,3.632,0,0,0,2.109-.685.552.552,0,0,1,.352-.088.63.63,0,0,1,.633.633.62.62,0,0,1-.281.527,4.926,4.926,0,0,1-2.97.914,4.458,4.458,0,0,1-.141-8.911Zm-2.6,3.831h5.185a2.512,2.512,0,0,0-2.584-2.531A2.6,2.6,0,0,0,577.755,301.389Z" transform="translate(-509.345 -273.407)"/><path class="b" d="M613.8,298.539c0,.369-.281.685-.826.756a3.028,3.028,0,0,0-2.056,1.213v5.2a.8.8,0,0,1-.791.791.788.788,0,0,1-.791-.791v-7.083a.784.784,0,0,1,.773-.791.8.8,0,0,1,.808.791v.6a3.853,3.853,0,0,1,1.758-1.353,1.714,1.714,0,0,1,.457-.088A.67.67,0,0,1,613.8,298.539Z" transform="translate(-532.206 -273.562)"/><path class="b" d="M633.5,298.743a1.028,1.028,0,0,1-.07.316l-2.795,6.8a1.223,1.223,0,0,1-1.125.756,1.194,1.194,0,0,1-1.142-.756l-2.812-6.819a.826.826,0,0,1-.053-.3.773.773,0,0,1,.773-.791.813.813,0,0,1,.738.492l2.478,6.292,2.478-6.292a.794.794,0,0,1,1.529.3Z" transform="translate(-543.328 -273.678)"/><path class="b" d="M655.579,287.352a1.017,1.017,0,0,1,1.02-1,1,1,0,0,1,1.019,1,1.02,1.02,0,0,1-1.019,1.019A1.032,1.032,0,0,1,655.579,287.352Zm.246,10.492v-7.083a.788.788,0,0,1,.791-.791.8.8,0,0,1,.791.791v7.083a.8.8,0,0,1-.809.791A.784.784,0,0,1,655.825,297.844Z" transform="translate(-564.019 -265.697)"/><path class="b" d="M672.124,297.558a3.785,3.785,0,0,1,2.707.984.747.747,0,0,1,.246.527.71.71,0,0,1-1.177.545,2.36,2.36,0,0,0-1.7-.65,3.067,3.067,0,0,0,0,6.1,2.357,2.357,0,0,0,1.7-.65.669.669,0,0,1,.457-.175.709.709,0,0,1,.72.7.754.754,0,0,1-.246.544,3.785,3.785,0,0,1-2.707.984,4.457,4.457,0,0,1,0-8.911Z" transform="translate(-572.428 -273.407)"/><path class="b" d="M699.991,297.558a4.068,4.068,0,0,1,4.13,4.218c0,.475-.334.756-.932.756h-5.782a2.783,2.783,0,0,0,2.882,2.636,3.634,3.634,0,0,0,2.109-.685.551.551,0,0,1,.351-.088.63.63,0,0,1,.632.633.62.62,0,0,1-.281.527,4.925,4.925,0,0,1-2.97.914,4.458,4.458,0,0,1-.14-8.911Zm-2.6,3.831h5.185a2.511,2.511,0,0,0-2.583-2.531A2.6,2.6,0,0,0,697.39,301.389Z" transform="translate(-591.646 -273.407)"/><path class="b" d="M727.057,304.957a.675.675,0,0,1,.685-.686.721.721,0,0,1,.387.123,4.114,4.114,0,0,0,2.39.809c1.2,0,1.828-.492,1.828-1.213,0-.844-.967-1.125-2.057-1.371-1.441-.334-3.128-.721-3.128-2.549,0-1.353,1.159-2.513,3.234-2.513a4.678,4.678,0,0,1,2.829.879.645.645,0,0,1-.369,1.177.6.6,0,0,1-.351-.123,3.526,3.526,0,0,0-2.092-.65c-1.072,0-1.74.422-1.74,1.107,0,.738.914.984,1.969,1.23,1.476.334,3.234.738,3.234,2.689,0,1.459-1.2,2.6-3.427,2.6a5.014,5.014,0,0,1-3.093-.949A.7.7,0,0,1,727.057,304.957Z" transform="translate(-613.192 -273.407)"/></g><g transform="translate(88.571 41.758)"><path class="c" d="M362.268,360.027l.04-6.036a.412.412,0,0,1,.456-.45l2.307.016a2.072,2.072,0,1,1-.028,4.14l-1.905-.013-.016,2.349a.432.432,0,0,1-.425.419A.427.427,0,0,1,362.268,360.027Zm2.7-5.709-1.8-.012-.018,2.616,1.8.012a1.31,1.31,0,1,0,.017-2.616Z" transform="translate(-362.268 -353.541)"/><path class="c" d="M383.625,360.1a.437.437,0,0,1-.846.159l-.486-1.291-3.533-.023-.5,1.284a.415.415,0,0,1-.4.275.437.437,0,0,1-.44-.435.61.61,0,0,1,.042-.175l2.408-5.855a.754.754,0,0,1,.7-.469.73.73,0,0,1,.687.479l2.34,5.886A.954.954,0,0,1,383.625,360.1Zm-1.615-1.9-1.447-3.831-1.5,3.811Z" transform="translate(-372.688 -353.559)"/><path class="c" d="M403.171,354.317l-2.319,3.352-.017,2.524a.433.433,0,0,1-.435.419.424.424,0,0,1-.419-.425l.016-2.524-2.284-3.373a.378.378,0,0,1-.07-.237.413.413,0,0,1,.415-.409.392.392,0,0,1,.349.188l2.019,3.072,2.049-3.045a.43.43,0,0,1,.351-.183.408.408,0,0,1,.346.641Z" transform="translate(-386.603 -353.612)"/><path class="c" d="M424.321,360.472a.416.416,0,0,1-.415.388.44.44,0,0,1-.359-.177l-1.775-2.608-1.514-.01-.016,2.349a.431.431,0,0,1-.425.419.426.426,0,0,1-.43-.425l.04-6.036a.412.412,0,0,1,.456-.45l2.307.015a2,2,0,0,1,2.139,2.085,1.888,1.888,0,0,1-1.65,1.967l1.561,2.214A.433.433,0,0,1,424.321,360.472Zm-4.058-3.158,1.8.012a1.314,1.314,0,1,0,.017-2.627l-1.8-.012Z" transform="translate(-401.563 -353.803)"/><path class="c" d="M442.058,353.75a3.556,3.556,0,1,1-3.433,3.531A3.355,3.355,0,0,1,442.058,353.75Zm-.005.762a2.805,2.805,0,1,0,2.5,2.808A2.538,2.538,0,0,0,442.052,354.512Z" transform="translate(-414.797 -353.685)"/><path class="c" d="M464.695,360.546l.04-6.035a.427.427,0,0,1,.436-.42.431.431,0,0,1,.419.425l-.038,5.727,2.853.019a.381.381,0,1,1-.005.762L465.145,361A.412.412,0,0,1,464.695,360.546Z" transform="translate(-432.732 -353.919)"/><path class="c" d="M481.524,360.658l.04-6.036a.427.427,0,0,1,.436-.42.431.431,0,0,1,.419.425l-.038,5.727,2.853.019a.381.381,0,1,1-.005.762l-3.254-.022A.413.413,0,0,1,481.524,360.658Z" transform="translate(-444.309 -353.996)"/><path class="c" d="M510.947,360.905l-1.377-5.149-1.435,5.13a.6.6,0,0,1-1.153,0l-1.65-5.943a.6.6,0,0,1-.019-.134.457.457,0,0,1,.456-.45.451.451,0,0,1,.43.343l1.416,5.438,1.53-5.428a.455.455,0,0,1,.875.006l1.457,5.448,1.479-5.419a.45.45,0,0,1,.885.119.617.617,0,0,1-.022.134l-1.729,5.921a.592.592,0,0,1-1.143-.018Z" transform="translate(-460.674 -354.105)"/><path class="c" d="M536,361.093l.041-6.108a.427.427,0,0,1,.435-.419.431.431,0,0,1,.419.425l-.041,6.108a.431.431,0,0,1-.425.419A.427.427,0,0,1,536,361.093Z" transform="translate(-481.787 -354.246)"/><path class="c" d="M544.543,361.239l.038-5.727-1.833-.012a.381.381,0,1,1,.005-.762l4.531.03a.381.381,0,1,1,0,.762l-1.844-.012-.038,5.727a.425.425,0,0,1-.425.419A.433.433,0,0,1,544.543,361.239Z" transform="translate(-486.167 -354.365)"/><path class="c" d="M567.57,361.3l.018-2.771-4.017-.027-.018,2.771a.431.431,0,0,1-.425.419.426.426,0,0,1-.43-.425l.04-6.108a.424.424,0,0,1,.425-.419.433.433,0,0,1,.43.425l-.017,2.575,4.017.027.017-2.575a.428.428,0,0,1,.855.006l-.041,6.108a.427.427,0,0,1-.855-.005Z" transform="translate(-500.152 -354.368)"/><path class="c" d="M599.234,361.533a.437.437,0,0,1-.846.159l-.486-1.29-3.532-.024-.5,1.284a.416.416,0,0,1-.4.275.438.438,0,0,1-.44-.436.611.611,0,0,1,.042-.175l2.408-5.855a.753.753,0,0,1,.7-.469.731.731,0,0,1,.687.478l2.34,5.886A1,1,0,0,1,599.234,361.533Zm-1.615-1.9-1.447-3.831-1.5,3.812Z" transform="translate(-521.014 -354.547)"/><path class="c" d="M623.989,360.924a.415.415,0,0,1,.415-.419.377.377,0,0,1,.257.094,2.836,2.836,0,0,0,1.88.734c1.225.008,1.621-.648,1.625-1.174.006-.824-.827-1.056-1.732-1.309-1.1-.3-2.324-.613-2.314-1.962.008-1.133,1.022-1.9,2.433-1.889a3.276,3.276,0,0,1,2.117.725.383.383,0,0,1,.173.331.418.418,0,0,1-.4.409.381.381,0,0,1-.247-.094,2.645,2.645,0,0,0-1.706-.609c-.886-.006-1.476.433-1.48,1.082,0,.69.787.9,1.661,1.144,1.121.306,2.4.665,2.386,2.107-.007,1-.693,2.014-2.547,2a3.472,3.472,0,0,1-2.363-.85A.434.434,0,0,1,623.989,360.924Z" transform="translate(-542.316 -354.544)"/><path class="c" d="M644.271,361.834l.039-5.963a.412.412,0,0,1,.456-.45l3.708.025a.381.381,0,1,1,0,.762l-3.306-.022-.015,2.215,3.234.021a.381.381,0,1,1,0,.762l-3.235-.022-.016,2.369,3.306.022a.381.381,0,1,1-.005.762l-3.707-.025A.413.413,0,0,1,644.271,361.834Z" transform="translate(-556.269 -354.834)"/><path class="c" d="M667.979,362.095a.417.417,0,0,1-.415.389.442.442,0,0,1-.359-.177l-1.775-2.608-1.514-.01-.016,2.349a.431.431,0,0,1-.425.419.426.426,0,0,1-.43-.425l.04-6.036a.412.412,0,0,1,.456-.45l2.307.015a2,2,0,0,1,2.139,2.085,1.888,1.888,0,0,1-1.651,1.967l1.561,2.215A.435.435,0,0,1,667.979,362.095Zm-4.058-3.158,1.8.012a1.315,1.315,0,1,0,.018-2.627l-1.8-.012Z" transform="translate(-569.184 -354.92)"/><path class="c" d="M683.616,362.024l-2.32-5.876a.3.3,0,0,1-.04-.165.453.453,0,0,1,.877-.159l2.187,5.7,2.262-5.67a.438.438,0,0,1,.424-.286.457.457,0,0,1,.45.456.436.436,0,0,1-.042.165l-2.4,5.845a.754.754,0,0,1-.7.469A.743.743,0,0,1,683.616,362.024Z" transform="translate(-581.712 -354.911)"/><path class="c" d="M704.489,362.215l.04-6.108a.427.427,0,0,1,.855.006l-.04,6.108a.431.431,0,0,1-.425.419A.427.427,0,0,1,704.489,362.215Z" transform="translate(-597.696 -355.018)"/><path class="c" d="M711.55,359.1a3.429,3.429,0,0,1,3.526-3.53,3.1,3.1,0,0,1,2.352,1.015.39.39,0,0,1,.1.279.41.41,0,0,1-.4.4.4.4,0,0,1-.308-.136,2.362,2.362,0,0,0-1.746-.794,2.8,2.8,0,0,0-.037,5.582,2.311,2.311,0,0,0,1.756-.771.394.394,0,0,1,.31-.132.4.4,0,0,1,.4.4.385.385,0,0,1-.1.277,3.081,3.081,0,0,1-2.365.984A3.43,3.43,0,0,1,711.55,359.1Z" transform="translate(-602.552 -354.937)"/><path class="c" d="M734.486,362.434l.04-5.963a.412.412,0,0,1,.456-.45l3.707.025a.381.381,0,1,1,0,.762l-3.306-.022L735.364,359l3.234.022a.381.381,0,1,1,0,.762l-3.234-.021-.016,2.369,3.306.022a.381.381,0,1,1-.005.762l-3.708-.025A.412.412,0,0,1,734.486,362.434Z" transform="translate(-618.331 -355.247)"/></g></g></g></svg>