<svg id="Laag_1" data-name="Laag 1" xmlns="http://www.w3.org/2000/svg" viewBox="0 0 50 50"><defs><style>.cls-1{fill:#1e1e1c;}</style></defs>
<title>seperate-icons</title><path class="cls-1" d="M200,99.49c-56.55,0-110.55,31.89-156.17,92.21l-6.58,8.7,6.59,8.7c45.61,60.31,99.61,92.2,156.16,92.2s110.54-31.89,156.16-92.17l6.59-8.73-6.58-8.7C310.55,131.38,256.55,99.49,200,99.49Zm-43.31,101A43.32,43.32,0,1,1,200,243.85,43.37,43.37,0,0,1,156.69,200.53Zm-83-.13c38-46.8,81.11-71.56,125.23-71.94a72.2,72.2,0,0,0-71.1,72.07c0,36.28,27,66.11,61.89,71.16C148.83,268.16,109.05,243.9,73.69,200.4Zm136.7,71.29c34.88-5.08,61.82-34.89,61.82-71.16a72.21,72.21,0,0,0-71-72.07c44.08.43,87.15,25.18,125.13,71.94C291,243.88,251.23,268.12,210.39,271.69Z"/></svg>