<svg xmlns="http://www.w3.org/2000/svg" width="18.659" height="18.659" viewBox="0 0 18.659 18.659"><defs><style>.a{fill:#00032b;}</style></defs><path class="a" d="M1905.371,986.02a9.33,9.33,0,1,0,9.33,9.33A9.34,9.34,0,0,0,1905.371,986.02Zm6.722,5.442h-1.468a10.69,10.69,0,0,0-1.133-2.693A7.82,7.82,0,0,1,1912.094,991.462Zm-2.511,3.887a13.38,13.38,0,0,1-.2,2.333h-3.23v-4.665h3.23A13.377,13.377,0,0,1,1909.582,995.35Zm-8.422,0a13.353,13.353,0,0,1,.2-2.332h3.23v4.665h-3.23A13.356,13.356,0,0,1,1901.16,995.35Zm3.434-7.63v3.743h-2.845C1902.361,989.561,1903.394,988.153,1904.594,987.72Zm0,11.517v3.744c-1.2-.434-2.233-1.843-2.845-3.744Zm1.555,3.744v-3.744h2.844C1908.381,1001.138,1907.348,1002.547,1906.149,1002.981Zm0-11.518V987.72c1.2.433,2.232,1.842,2.844,3.743Zm-4.9-2.692a10.676,10.676,0,0,0-1.133,2.692h-1.468A7.813,7.813,0,0,1,1901.249,988.77Zm-3.294,4.247h1.832a15.046,15.046,0,0,0,0,4.665h-1.832a7.772,7.772,0,0,1,0-4.665Zm.694,6.22h1.468a10.663,10.663,0,0,0,1.133,2.692A7.812,7.812,0,0,1,1898.649,999.237Zm10.844,2.693a10.678,10.678,0,0,0,1.133-2.693h1.468A7.82,7.82,0,0,1,1909.493,1001.93Zm3.295-4.248h-1.832a15.046,15.046,0,0,0,0-4.665h1.832a7.767,7.767,0,0,1,0,4.665Z" transform="translate(-1896.042 -986.02)"/></svg>