<svg xmlns="http://www.w3.org/2000/svg" width="20.644" height="26.045" viewBox="0 0 20.644 26.045"><defs><style>.a{fill:#fff;}</style></defs><path class="a" d="M413.461,373.207c-.707-8.38.152-10.948.719-13.007a11.1,11.1,0,0,0,3.31,2.436,6.8,6.8,0,0,0-1.376-4.071,4.9,4.9,0,0,1,4.028,2.2,3.469,3.469,0,0,0-2.021-4.354c1.21-.678,2.946-1.695,3.179-1.86a4.687,4.687,0,0,0-5.163.031,13.575,13.575,0,0,1,2.287-3.55c-1.733-.654-4.222.381-4.83,3.26-2.346-3.439-7.156-4.176-9.758-2.364a13.951,13.951,0,0,1,7.8,3.8c-3.185-1.361-6.994.26-7.94,2.751a21.558,21.558,0,0,1,7.559-.513,5.53,5.53,0,0,0-1.621,4.143,6.385,6.385,0,0,0,2.78-1.574c-1.084,3.8-1.285,9.055-1.254,12.993-3.036.609-5.127,1.886-5.127,3.363h18.307C424.344,374.537,419.119,372.764,413.461,373.207Z" transform="translate(-403.7 -350.839)"/></svg>