<svg id="Laag_1" data-name="Laag 1" xmlns="http://www.w3.org/2000/svg" viewBox="0 0 400 400" width="30" height="30"><defs><style>.cls-1{fill:#0FC600;}</style></defs><title>seperate-icons</title><path class="cls-1" d="M375,200l-48.2-27.84,48.2-28L202.27,44.39l-2.78-1.61L25,144.18,73.2,172,25,200l48.2,27.84-48.2,28,172.72,99.74,2.79,1.61L375,255.82,326.8,228ZM92.4,239l107,61.77,1.11.65,107.11-62.24,29,16.74L200.5,335,63.38,255.82Zm-29-94.84L199.5,65l137.12,79.16L200.5,223.28Zm29,39,107,61.77,1.11.64,107.11-62.23,29,16.75L200.5,279.14,63.38,200Z"/></svg>