<svg xmlns="http://www.w3.org/2000/svg" width="21.684" height="21.684" viewBox="0 0 21.684 21.684"><path d="M1139.026,283.731a2.571,2.571,0,1,1,1.839.774A2.513,2.513,0,0,1,1139.026,283.731Zm-.435,17.231V286.49h4.5v14.472Zm16.844,0V293.9a7.8,7.8,0,0,0-.291-2.517,2.037,2.037,0,0,0-2.081-1.307,2.266,2.266,0,0,0-2.178,1.162,5.4,5.4,0,0,0-.484,2.565v7.163h-4.453V286.49h4.307v1.984h.048a3.869,3.869,0,0,1,1.549-1.6,4.774,4.774,0,0,1,2.711-.774q3.146,0,4.4,1.984a9.788,9.788,0,0,1,.968,4.937v7.938Z" transform="translate(-1138.252 -279.278)"/></svg>