<svg xmlns="http://www.w3.org/2000/svg" width="45.867" height="61.766" viewBox="0 0 45.867 61.766"><defs><style>.a{fill:#0fc600;}</style></defs><g transform="translate(-316 -651.005)"><path class="a" d="M338.934,651.005A22.959,22.959,0,0,0,316,673.936c0,11.811,18.633,33.829,20.756,36.3l2.177,2.533,2.177-2.533c2.123-2.473,20.756-24.491,20.756-36.3A22.959,22.959,0,0,0,338.934,651.005Zm0,52.881c-6.254-7.7-17.2-22.675-17.2-29.951a17.2,17.2,0,0,1,34.392,0C356.13,681.2,345.19,696.187,338.934,703.886Z"/><path class="a" d="M331.451,654.969a11.475,11.475,0,1,0,11.475,11.475A11.489,11.489,0,0,0,331.451,654.969Zm0,17.213a5.738,5.738,0,1,1,5.738-5.738A5.742,5.742,0,0,1,331.451,672.182Z" transform="translate(7.431 7.408)"/></g></svg>