<svg xmlns="http://www.w3.org/2000/svg" xmlns:xlink="http://www.w3.org/1999/xlink" width="15.988" height="21.53" viewBox="0 0 15.988 21.53"><defs><style>.a{fill:url(#a);}</style><linearGradient id="a" x1="0.5" x2="0.5" y2="1" gradientUnits="objectBoundingBox"><stop offset="0" stop-color="#e37619"/><stop offset="1" stop-color="#9c0b19"/></linearGradient></defs><g transform="translate(-316 -651.005)"><path class="a" d="M323.994,651.005A8,8,0,0,0,316,659c0,4.117,6.495,11.792,7.235,12.654l.759.883.759-.883c.74-.862,7.235-8.537,7.235-12.654A8,8,0,0,0,323.994,651.005Zm0,18.433c-2.18-2.684-5.994-7.9-5.994-10.44a5.994,5.994,0,0,1,11.988,0C329.988,661.531,326.175,666.754,323.994,669.438Z"/><path class="a" d="M323.976,654.969a4,4,0,1,0,4,4A4,4,0,0,0,323.976,654.969Zm0,6a2,2,0,1,1,2-2A2,2,0,0,1,323.976,660.969Z"/></g></svg>