<svg xmlns="http://www.w3.org/2000/svg" width="26.964" height="26.964" viewBox="0 0 26.964 26.964"><defs><style>.a{fill:#fff;}</style></defs><path class="a" d="M297.217,283.736a13.5,13.5,0,1,0,9.529,3.953A13.44,13.44,0,0,0,297.217,283.736Zm0,25.278a11.809,11.809,0,1,1,8.338-3.459A11.76,11.76,0,0,1,297.217,309.014Z" transform="translate(-283.735 -283.736)"/><path class="a" d="M404.645,542.2a3.793,3.793,0,0,0-.736-.722,2.235,2.235,0,0,0-2.523,0,3.807,3.807,0,0,0-.736.722,2.62,2.62,0,0,1-.382.4.55.55,0,0,1-.638,0,2.618,2.618,0,0,1-.381-.4,3.778,3.778,0,0,0-.735-.723,2.23,2.23,0,0,0-2.519,0,3.787,3.787,0,0,0-.735.723,2.62,2.62,0,0,1-.381.4.548.548,0,0,1-.636,0,2.623,2.623,0,0,1-.381-.4,3.8,3.8,0,0,0-.736-.723,2.137,2.137,0,0,0-1.26-.39v1.685a.481.481,0,0,1,.318.1,2.624,2.624,0,0,1,.381.4,3.786,3.786,0,0,0,.735.722,2.23,2.23,0,0,0,2.519,0,3.787,3.787,0,0,0,.735-.722,2.63,2.63,0,0,1,.381-.4.549.549,0,0,1,.637,0,2.627,2.627,0,0,1,.381.4,3.809,3.809,0,0,0,.735.722,2.23,2.23,0,0,0,2.52,0,3.787,3.787,0,0,0,.735-.722,2.634,2.634,0,0,1,.383-.4.554.554,0,0,1,.64,0,2.63,2.63,0,0,1,.382.4,3.781,3.781,0,0,0,.736.722,2.142,2.142,0,0,0,1.261.39v-1.685a.482.482,0,0,1-.319-.1A2.628,2.628,0,0,1,404.645,542.2Z" transform="translate(-385.124 -525.045)"/><path class="a" d="M393.551,410.439h1.685v-1.685h1.685v-1.685h-1.685v-1.685h-1.685v1.685h-1.685v1.685h1.685v1.685Z" transform="translate(-385.124 -397.799)"/><path class="a" d="M530.4,405.383h-1.685v1.685H527.03v1.685h1.685v1.685H530.4v-1.685h1.685v-1.685H530.4v-1.685Z" transform="translate(-511.863 -397.799)"/></svg>