<svg xmlns="http://www.w3.org/2000/svg" width="18.659" height="18.659" viewBox="0 0 18.659 18.659"><defs><style>.a{opacity:0.996;}</style></defs><g class="a"><path d="M1532.659,622.531a6.539,6.539,0,0,0-6.531-6.531h-5.6a6.539,6.539,0,0,0-6.531,6.531V624.4h18.659Zm-16.793,0a4.67,4.67,0,0,1,4.665-4.665h5.6a4.67,4.67,0,0,1,4.665,4.665Z" transform="translate(-1514 -605.737)"/><path d="M1528.33,609.665a4.665,4.665,0,1,0-4.665,4.665A4.67,4.67,0,0,0,1528.33,609.665Zm-7.464,0a2.8,2.8,0,1,1,2.8,2.8A2.8,2.8,0,0,1,1520.866,609.665Z" transform="translate(-1514.335 -605)"/></g></svg>