<svg xmlns="http://www.w3.org/2000/svg" xmlns:xlink="http://www.w3.org/1999/xlink" width="24" height="24.002" viewBox="0 0 24 24.002"><defs><style>.a{fill:url(#a);}</style><linearGradient id="a" x1="0.5" x2="0.687" y2="1" gradientUnits="objectBoundingBox"><stop offset="0" stop-color="#e37619"/><stop offset="1" stop-color="#9c0b19"/></linearGradient></defs><path class="a" d="M516.1,1130.019a12,12,0,1,0,5.693,22.566l1.186-.64-4.521-4.522-.6.213a6.069,6.069,0,0,1-2.031.35,5.969,5.969,0,0,1-4.248-1.758,6.047,6.047,0,0,1-1.747-4.586l3.167,3.165a3.084,3.084,0,0,0,4.26,0l1.42-1.421a3.011,3.011,0,0,0,0-4.259l-3.169-3.17a6.009,6.009,0,0,1,6,8.029l-.212.6,4.546,4.548.654-1.135a11.988,11.988,0,0,0-10.4-17.977Zm9.246,15.774-1.753-1.753a8.068,8.068,0,0,0-2.073-7.752,8.032,8.032,0,0,0-8.37-1.881l-1.5.531,5.608,5.61a1,1,0,0,1,0,1.419l-1.42,1.419a1.027,1.027,0,0,1-1.42,0l-5.61-5.607-.532,1.5a8.07,8.07,0,0,0,1.882,8.372,7.965,7.965,0,0,0,5.668,2.345,8.127,8.127,0,0,0,2.085-.273l1.668,1.668a9.994,9.994,0,1,1,6.51-9.367A9.939,9.939,0,0,1,525.342,1145.793Z" transform="translate(-504.096 -1130.019)"/></svg>