<svg xmlns="http://www.w3.org/2000/svg" width="57.816" height="57.822" viewBox="0 0 57.816 57.822"><defs><style>.a{fill:#0fc600;}</style></defs><path class="a" d="M533,1130.019a28.911,28.911,0,1,0,13.714,54.362l2.857-1.543-10.891-10.894-1.439.512a14.616,14.616,0,0,1-4.893.842,14.38,14.38,0,0,1-10.234-4.235,14.568,14.568,0,0,1-4.208-11.049l7.628,7.624a7.428,7.428,0,0,0,10.262.005l3.42-3.423a7.253,7.253,0,0,0,0-10.26l-7.634-7.635a14.477,14.477,0,0,1,14.447,19.342l-.51,1.437,10.952,10.957,1.575-2.735A28.878,28.878,0,0,0,533,1130.019Zm22.274,38-4.223-4.223a19.436,19.436,0,0,0-4.995-18.675,19.351,19.351,0,0,0-20.165-4.533l-3.606,1.28,13.51,13.515a2.413,2.413,0,0,1,0,3.417l-3.42,3.418a2.473,2.473,0,0,1-3.42,0l-13.513-13.508-1.282,3.6a19.441,19.441,0,0,0,4.533,20.169,19.188,19.188,0,0,0,13.654,5.65,19.572,19.572,0,0,0,5.024-.658l4.018,4.018a24.075,24.075,0,1,1,15.683-22.564A23.943,23.943,0,0,1,555.278,1168.019Z" transform="translate(-504.096 -1130.019)"/></svg>