<svg xmlns="http://www.w3.org/2000/svg" width="400.004" height="400.004" style=""><rect id="backgroundrect" width="100%" height="100%" x="0" y="0" fill="none" stroke="none"/>

<g class="currentLayer" style=""><title>Layer 1</title><g id="svg_1" class="" transform="rotate(-179.99998474121094 200.00199890136722,200.00149536132812) ">
	<path xmlns="http://www.w3.org/2000/svg" style="fill:#fff;" d="M382.688,182.686H59.116l77.209-77.214c6.764-6.76,6.764-17.726,0-24.485c-6.764-6.764-17.73-6.764-24.484,0L5.073,187.757   c-6.764,6.76-6.764,17.727,0,24.485l106.768,106.775c3.381,3.383,7.812,5.072,12.242,5.072c4.43,0,8.861-1.689,12.242-5.072   c6.764-6.76,6.764-17.726,0-24.484l-77.209-77.218h323.572c9.562,0,17.316-7.753,17.316-17.315   C400.004,190.438,392.251,182.686,382.688,182.686z" id="svg_2"/>
</g></g></svg>