<svg id="Laag_1" data-name="Laag 1" xmlns="http://www.w3.org/2000/svg" viewBox="0 0 400 400"><defs><style>.cls-1{fill:#fff;}</style></defs><title>seperate-icons</title><path class="cls-1" d="M200,141.65A58.33,58.33,0,1,0,258.33,200,58.39,58.39,0,0,0,200,141.65Zm0,87.49A29.16,29.16,0,1,1,229.16,200,29.19,29.19,0,0,1,200,229.14Z"/><path class="cls-1" d="M332.25,138.55l20.16-33.65L295.08,47.58,261.43,67.75c-3.72-1.72-7.52-3.3-11.38-4.7l-9.5-38h-81.1L150,63.05q-5.82,2.11-11.39,4.7L104.92,47.57,47.59,104.93l20.16,33.62c-1.7,3.71-3.28,7.5-4.69,11.37L25,159.44v81.09l38.08,9.52q2.1,5.79,4.68,11.38L47.58,295.08l57.33,57.33,33.65-20.19c3.73,1.73,7.51,3.29,11.37,4.7l9.5,38.08h81.1l9.52-38.08c3.88-1.41,7.66-3,11.38-4.7l33.65,20.2,57.33-57.34-20.18-33.64q2.58-5.58,4.7-11.39L375,240.53V159.46L337,149.94Q334.82,144.12,332.25,138.55Zm13.59,79.21-31.81,8-2.38,7.95a114.64,114.64,0,0,1-8.88,21.5l-3.93,7.3,16.86,28.07-25.15,25.15-28.08-16.85-7.3,3.93a116.68,116.68,0,0,1-21.52,8.89l-7.93,2.39-7.95,31.79H182.21L174.27,314l-8-2.38a115.06,115.06,0,0,1-21.49-8.89l-7.3-3.92-28.09,16.86L84.29,290.54l16.84-28.06-3.91-7.3a115.74,115.74,0,0,1-8.87-21.52L86,225.72l-31.81-8V182.21l31.75-7.94,2.39-7.91a117.45,117.45,0,0,1,8.92-21.54l3.93-7.3L84.3,109.45l25.15-25.16,28.05,16.84,7.29-3.91a116.81,116.81,0,0,1,21.55-8.9l7.94-2.38,7.95-31.78h35.54l7.95,31.78,7.94,2.38a116.45,116.45,0,0,1,21.55,8.9l7.29,3.91,28.05-16.84,25.15,25.14-16.85,28.09,3.93,7.3a115.67,115.67,0,0,1,8.89,21.52l2.39,7.93,31.78,8Z"/></svg>