<svg xmlns="http://www.w3.org/2000/svg" xmlns:xlink="http://www.w3.org/1999/xlink" width="46.041" height="47.193" viewBox="0 0 46.041 47.193"><defs><style>.a{fill:url(#a);}</style><linearGradient id="a" y1="-0.814" x2="1" y2="1.299" gradientUnits="objectBoundingBox"><stop offset="0" stop-color="#9c0b19"/><stop offset="1" stop-color="#e37619"/></linearGradient></defs><g transform="translate(-1512 -698)"><path class="a" d="M1516,706.849a8.849,8.849,0,1,0,8.849-8.849A8.858,8.858,0,0,0,1516,706.849Zm13.765,0a4.916,4.916,0,1,1-4.916-4.916A4.922,4.922,0,0,1,1529.765,706.849Z" transform="translate(3.866)"/><path class="a" d="M1521,727.25v8.68h8.679l19.664-19.664-8.68-8.68Zm3.933,4.747v-3.119l3.119,3.119Zm5.9-2.78-3.119-3.119,12.951-12.951,3.119,3.119Z" transform="translate(8.698 9.264)"/><path class="a" d="M1515.933,719.8v-1.966a5.906,5.906,0,0,1,5.9-5.9H1535.6a5.88,5.88,0,0,1,3.274,1l2.782-2.782A9.734,9.734,0,0,0,1535.6,708h-13.765a9.843,9.843,0,0,0-9.832,9.832v5.9h16.069L1532,719.8Z" transform="translate(0 9.664)"/></g></svg>