<svg xmlns="http://www.w3.org/2000/svg" xmlns:xlink="http://www.w3.org/1999/xlink" width="45.489" height="33.057" viewBox="0 0 45.489 33.057"><defs><style>.a{fill:url(#a);}.b{fill:url(#b);}</style><linearGradient id="a" y1="-0.814" x2="1" y2="1.299" gradientUnits="objectBoundingBox"><stop offset="0" stop-color="#9c0b19"/><stop offset="1" stop-color="#e37619"/></linearGradient><linearGradient id="b" x1="0.5" y1="0" x2="0.5" y2="1" xlink:href="#a"/></defs><g transform="translate(-1521.348 -697.492)"><path class="a" d="M1521,721.417v6.1h6.1l13.831-13.831-6.1-6.1Zm2.766,3.339v-2.194l2.194,2.194Zm4.149-1.956-2.194-2.194,9.109-9.109,2.194,2.194Z" transform="translate(25.902 -6.532)"/><g transform="translate(573.001 552)"><g transform="translate(113.619 68.552)"><g transform="translate(836.606 76.94)"><path class="b" d="M860.157,110H840.623V76.94h19.534Zm-17.468-2.066h15.4V79.006h-15.4Z" transform="translate(-840.623 -76.94)"/></g><g transform="translate(834.728 107.931)"><rect class="b" width="23.29" height="2.066"/></g><g transform="translate(841.436 80.936)"><g transform="translate(0 5.75)"><rect class="b" width="9.873" height="2.066"/></g><g transform="translate(0 11.499)"><rect class="b" width="9.873" height="2.066"/></g><g transform="translate(0 17.249)"><rect class="b" width="9.873" height="2.066"/></g><g transform="translate(0 0)"><rect class="b" width="9.873" height="2.066"/></g><g transform="translate(0 22.999)"><rect class="b" width="9.873" height="2.066"/></g></g></g></g></g></svg>