<svg xmlns="http://www.w3.org/2000/svg" width="58.6" height="51.275" viewBox="0 0 58.6 51.275"><defs><style>.a{fill:#0fc600;}</style></defs><path class="a" d="M1611.275,463h-43.95a7.334,7.334,0,0,0-7.325,7.325v26.858a7.334,7.334,0,0,0,7.325,7.325h43.95a7.334,7.334,0,0,0,7.325-7.325V470.325A7.334,7.334,0,0,0,1611.275,463Zm2.441,34.183a2.444,2.444,0,0,1-2.441,2.442h-43.95a2.444,2.444,0,0,1-2.442-2.442V470.325a2.444,2.444,0,0,1,2.442-2.442h43.95a2.444,2.444,0,0,1,2.441,2.442Z" transform="translate(-1560 -453.233)"/><rect class="a" width="17.092" height="4.883" transform="translate(29.3 24.417)"/><rect class="a" width="17.092" height="4.883" transform="translate(29.3 34.183)"/><path class="a" d="M1573.767,472h-4.883a4.882,4.882,0,0,0-4.884,4.883v4.883h14.65v-4.883A4.883,4.883,0,0,0,1573.767,472Z" transform="translate(-1554.233 -440.258)"/><circle class="a" cx="4.883" cy="4.883" r="4.883" transform="translate(12.208 19.533)"/><path class="a" d="M1569,466.325h4.884a2.442,2.442,0,0,1,4.883,0h4.883a7.325,7.325,0,0,0-14.65,0Z" transform="translate(-1547.025 -459)"/></svg>