<svg xmlns="http://www.w3.org/2000/svg" width="26.278" height="26.28" viewBox="0 0 26.278 26.28"><defs><style>.a{fill:#fff;}</style></defs><path class="a" d="M517.235,1130.019a13.14,13.14,0,1,0,6.233,24.708l1.3-.7-4.95-4.951-.654.233a6.65,6.65,0,0,1-2.224.383,6.535,6.535,0,0,1-4.651-1.925,6.621,6.621,0,0,1-1.913-5.022l3.467,3.465a3.376,3.376,0,0,0,4.664,0l1.554-1.556a3.3,3.3,0,0,0,0-4.663l-3.469-3.47a6.58,6.58,0,0,1,6.566,8.791l-.232.653,4.978,4.98.716-1.243a13.125,13.125,0,0,0-11.383-19.683Zm10.123,17.271-1.919-1.919a8.834,8.834,0,0,0-2.27-8.488,8.8,8.8,0,0,0-9.165-2.06l-1.639.582,6.141,6.143a1.1,1.1,0,0,1,0,1.553l-1.554,1.553a1.124,1.124,0,0,1-1.554,0l-6.142-6.139-.583,1.638a8.836,8.836,0,0,0,2.06,9.167,8.722,8.722,0,0,0,6.206,2.568,8.913,8.913,0,0,0,2.283-.3l1.826,1.826a10.942,10.942,0,1,1,7.128-10.255A10.881,10.881,0,0,1,527.358,1147.29Z" transform="translate(-504.096 -1130.019)"/></svg>